{"glyphs":{"0":{"ha":840,"x_min":0,"x_max":0,"o":"m 92 451 b 421 -12 92 196 160 -12 b 749 451 682 -12 749 196 b 421 918 749 710 682 918 b 92 451 160 918 92 710 z m 217 451 b 421 793 217 640 258 793 b 625 451 583 793 625 640 b 421 111 625 264 583 111 b 217 451 258 111 217 264 z "},"1":{"ha":464,"x_min":0,"x_max":0,"o":"m 206 0 l 331 0 l 331 915 l 58 817 l 58 697 l 206 749 z "},"2":{"ha":732,"x_min":0,"x_max":0,"o":"m 83 56 l 83 0 l 643 0 l 643 125 l 297 125 b 543 415 424 274 425 279 b 642 650 603 482 642 561 b 357 918 642 810 515 918 b 72 679 217 918 94 826 l 193 650 b 357 793 206 740 274 793 b 518 650 446 793 518 739 b 451 501 518 599 492 550 z "},"3":{"ha":743,"x_min":0,"x_max":0,"o":"m 206 713 b 364 794 243 768 293 800 b 469 742 408 790 449 771 b 485 649 490 713 490 681 b 360 544 474 589 425 543 l 257 544 l 257 424 l 360 424 b 535 261 454 424 539 349 b 338 113 531 174 436 106 l 339 113 b 169 238 265 118 197 175 l 60 178 b 329 -11 108 72 208 -1 b 661 244 499 -22 646 89 b 518 489 668 340 611 456 b 617 613 567 517 601 563 b 625 668 622 632 625 650 b 375 919 629 794 524 913 b 113 786 263 926 163 874 z "},"4":{"ha":822,"x_min":0,"x_max":0,"o":"m 632 186 l 763 186 l 763 304 l 632 304 l 632 907 l 539 907 l 36 186 l 508 186 l 508 0 l 632 0 z m 249 304 l 508 682 l 508 304 z "},"5":{"ha":783,"x_min":0,"x_max":0,"o":"m 67 193 b 368 -14 122 67 242 -14 b 708 292 571 -14 708 106 b 399 582 708 481 565 582 b 228 529 344 582 269 560 l 278 786 l 658 786 l 658 906 l 175 906 l 96 454 l 174 390 b 399 465 267 446 321 465 b 586 292 499 465 586 408 b 368 107 586 190 521 107 b 174 251 281 107 208 163 z "},"6":{"ha":772,"x_min":0,"x_max":0,"o":"m 683 743 b 424 918 621 881 525 914 b 113 642 258 922 139 807 b 97 299 94 526 89 413 b 386 -12 113 110 226 -6 b 690 275 549 -19 683 113 b 410 586 694 436 576 586 b 224 483 326 586 253 557 b 418 800 206 668 294 800 b 572 696 475 800 535 769 z m 222 294 b 406 461 226 392 310 465 b 567 281 501 457 571 379 b 392 114 563 183 488 110 b 222 294 297 118 222 193 z "},"7":{"ha":736,"x_min":0,"x_max":0,"o":"m 713 907 l 86 907 l 86 783 l 501 783 l 69 0 l 215 0 z "},"8":{"ha":781,"x_min":0,"x_max":0,"o":"m 149 686 b 215 526 149 621 175 565 b 78 283 132 475 78 385 b 390 -12 78 118 213 -12 b 703 283 567 -12 703 118 b 564 526 703 385 651 472 b 635 686 607 565 635 621 b 390 918 635 814 529 918 b 149 686 251 918 149 814 z m 203 283 b 381 458 203 376 279 454 l 390 458 b 578 283 496 458 578 378 b 390 111 578 188 496 111 b 203 283 285 111 203 188 z m 272 686 b 390 793 272 746 324 793 b 510 686 458 793 510 746 b 394 575 510 626 461 579 l 383 575 b 272 686 318 579 272 626 z "},"9":{"ha":771,"x_min":0,"x_max":0,"o":"m 88 161 b 347 -14 147 24 249 -10 b 658 263 513 -21 632 100 b 674 606 676 378 682 492 b 385 917 658 794 544 910 b 81 629 222 924 88 792 b 361 318 74 468 197 318 b 547 421 444 318 518 347 b 353 104 563 236 479 104 b 199 208 296 104 236 135 z m 549 610 b 365 443 544 513 461 439 b 204 624 269 447 200 525 b 379 790 208 721 283 794 b 549 610 474 786 549 711 z "}," ":{"ha":361,"x_min":0,"x_max":0,"o":""},"f":{"ha":476,"x_min":0,"x_max":0,"o":"m 482 1001 l 411 1001 b 163 714 236 1001 163 885 l 163 649 l 38 649 l 38 542 l 163 542 l 163 0 l 290 0 l 290 542 l 440 542 l 440 649 l 290 649 l 290 714 b 411 881 290 797 306 881 l 482 881 z "},"o":{"ha":804,"x_min":0,"x_max":0,"o":"m 401 -14 b 742 326 586 -14 742 121 b 401 663 742 532 586 663 b 63 326 217 663 63 532 b 401 -14 63 121 217 -14 z m 401 108 b 188 326 283 108 188 193 b 401 539 188 457 283 539 b 615 326 517 539 615 457 b 401 108 615 193 517 108 z "},"l":{"ha":338,"x_min":0,"x_max":0,"o":"m 106 1001 l 106 0 l 232 0 l 232 1001 z "},"c":{"ha":711,"x_min":0,"x_max":0,"o":"m 63 326 b 406 -14 63 121 221 -14 b 657 92 506 -14 596 25 l 560 172 b 406 108 521 132 465 108 b 188 326 289 108 188 197 b 406 539 188 457 289 539 b 560 478 465 539 521 517 l 656 558 b 406 663 594 625 506 663 b 63 326 221 663 63 532 z "},"e":{"ha":772,"x_min":0,"x_max":0,"o":"m 189 375 b 394 549 204 485 288 549 b 592 375 500 549 576 485 z m 717 326 b 394 663 717 532 579 663 b 63 326 210 663 63 532 b 394 -14 63 121 210 -14 b 693 158 521 -14 638 43 b 585 200 658 174 618 185 b 399 100 547 135 476 100 b 189 276 288 100 204 167 l 715 276 b 717 326 717 292 717 311 z "},"j":{"ha":339,"x_min":0,"x_max":0,"o":"m -86 -318 l 0 -318 b 233 -40 175 -318 233 -201 l 233 649 l 106 649 l 106 -39 b -11 -200 106 -112 96 -200 l -86 -200 z m 82 888 b 169 806 82 839 121 806 b 257 888 218 806 257 839 b 169 969 257 936 218 969 b 82 888 121 969 82 936 z "},"p":{"ha":846,"x_min":0,"x_max":0,"o":"m 232 649 l 106 649 l 106 -315 l 232 -315 l 232 97 b 458 -14 276 24 367 -14 b 783 322 636 -14 783 117 b 458 663 783 528 636 663 b 232 547 367 663 276 621 z m 233 321 b 446 539 233 458 332 539 b 656 321 563 539 656 450 b 446 110 656 192 563 110 b 233 321 342 110 233 182 z "},"q":{"ha":846,"x_min":0,"x_max":0,"o":"m 614 547 b 388 663 571 621 478 663 b 63 322 210 663 63 528 b 388 -14 63 117 210 -14 b 614 97 478 -14 571 21 l 614 -315 l 740 -315 l 740 649 l 614 649 z m 614 321 b 400 110 614 182 504 110 b 192 321 283 110 192 192 b 400 539 192 450 283 539 b 614 321 515 539 614 458 z "},"h":{"ha":806,"x_min":0,"x_max":0,"o":"m 232 350 b 429 539 232 489 340 539 b 582 367 518 539 582 474 l 582 0 l 708 0 l 708 375 b 446 663 710 558 608 663 b 232 551 376 663 269 629 l 232 1001 l 106 1001 l 106 0 l 232 0 z "},"g":{"ha":849,"x_min":0,"x_max":0,"o":"m 203 -93 b 97 -149 186 -100 113 -140 b 390 -324 160 -264 269 -324 b 744 99 606 -324 744 -207 l 744 649 l 619 649 l 619 547 b 392 663 575 621 482 663 b 63 322 214 663 63 528 b 392 -14 63 117 214 -14 b 619 106 483 -14 579 28 b 621 90 619 100 621 96 b 390 -204 621 -125 531 -204 b 203 -93 318 -204 242 -165 z m 618 324 b 403 110 618 185 508 110 b 192 324 286 110 192 190 b 403 539 192 450 286 539 b 618 324 518 539 618 463 z "},"k":{"ha":697,"x_min":0,"x_max":0,"o":"m 231 317 l 526 0 l 693 0 l 349 368 l 626 649 l 454 649 l 231 422 l 231 1001 l 106 1001 l 106 0 l 231 0 z "},"s":{"ha":610,"x_min":0,"x_max":0,"o":"m 342 265 b 428 183 390 254 429 232 b 329 99 426 135 389 103 b 226 121 289 96 256 103 b 174 194 194 136 178 167 l 58 194 b 300 -14 63 61 183 -14 b 551 181 435 -14 551 58 b 383 369 551 254 517 336 l 288 393 b 211 443 254 403 224 417 b 210 494 204 457 204 474 b 307 553 219 529 258 553 b 408 479 357 553 401 528 l 529 479 b 304 663 518 611 414 663 b 79 497 188 663 90 592 b 253 286 68 376 135 318 z "},"n":{"ha":782,"x_min":0,"x_max":0,"o":"m 232 350 b 415 539 232 488 324 539 b 558 367 504 539 558 476 l 558 0 l 685 0 l 685 375 b 435 663 685 558 597 663 b 232 551 364 663 269 629 l 232 649 l 106 649 l 106 0 l 232 0 z "},"i":{"ha":336,"x_min":0,"x_max":0,"o":"m 231 649 l 106 649 l 106 0 l 231 0 z m 81 888 b 168 806 81 839 119 806 b 256 888 217 806 256 839 b 168 969 256 936 217 969 b 81 888 119 969 81 936 z "},"t":{"ha":456,"x_min":0,"x_max":0,"o":"m 281 649 l 281 893 l 154 893 l 154 649 l 38 649 l 38 542 l 154 542 l 154 0 l 281 0 l 281 542 l 418 542 l 418 649 z "},"S":{"ha":796,"x_min":0,"x_max":0,"o":"m 72 276 b 407 -14 72 126 213 -14 b 726 236 596 -14 708 97 b 471 536 747 390 650 490 l 346 567 b 210 700 225 596 210 658 b 389 844 210 788 294 844 b 569 688 494 844 569 783 l 699 688 b 390 968 699 860 564 968 b 81 699 228 968 81 860 b 314 449 81 615 110 500 l 438 418 b 600 247 524 399 607 350 b 407 107 589 175 529 107 b 201 276 286 107 201 193 z "},"m":{"ha":1224,"x_min":0,"x_max":0,"o":"m 851 539 b 1000 367 946 539 1000 474 l 1000 0 l 1126 0 l 1126 375 b 876 663 1126 558 1039 663 b 651 529 814 663 711 644 b 482 656 621 600 564 643 b 411 660 460 660 436 661 b 232 551 358 656 265 624 l 232 649 l 106 649 l 106 0 l 232 0 l 232 350 b 413 539 232 486 322 539 b 553 368 497 539 553 475 l 553 0 l 679 0 l 679 350 b 851 539 679 458 744 539 z "},"u":{"ha":781,"x_min":0,"x_max":0,"o":"m 549 299 b 365 110 549 160 457 110 b 224 282 276 110 224 172 l 224 649 l 97 649 l 97 274 b 347 -14 96 90 185 -14 b 549 97 418 -14 508 19 l 549 0 l 675 0 l 675 649 l 549 649 z "},"r":{"ha":549,"x_min":0,"x_max":0,"o":"m 232 236 b 410 542 232 408 285 542 b 506 519 436 542 471 536 l 525 638 b 413 663 507 650 458 663 b 232 503 328 663 265 618 l 232 649 l 106 649 l 106 0 l 232 0 z "},"v":{"ha":708,"x_min":0,"x_max":0,"o":"m 24 649 l 293 0 l 415 0 l 414 0 l 685 649 l 550 649 l 354 161 l 157 649 z "},"z":{"ha":697,"x_min":0,"x_max":0,"o":"m 629 649 l 81 649 l 81 528 l 444 528 l 58 104 l 58 0 l 629 0 l 629 121 l 236 121 l 629 544 z "},"y":{"ha":707,"x_min":0,"x_max":0,"o":"m 281 -315 l 683 649 l 549 649 l 354 179 l 160 649 l 25 649 l 285 19 l 149 -315 z "},"w":{"ha":1097,"x_min":0,"x_max":0,"o":"m 828 0 l 1068 649 l 933 649 l 771 194 l 608 649 l 486 649 l 324 194 l 161 649 l 26 649 l 274 0 l 376 0 l 547 476 l 724 0 z "},"x":{"ha":694,"x_min":0,"x_max":0,"o":"m 63 649 l 274 356 l 17 0 l 165 0 l 347 251 l 528 0 l 678 0 l 421 356 l 633 649 l 482 649 l 347 458 l 214 649 z "},"A":{"ha":896,"x_min":0,"x_max":0,"o":"m 290 360 l 449 785 l 607 360 z m 651 243 l 744 0 l 881 0 l 518 957 l 379 957 l 15 0 l 153 0 l 246 243 z "},"O":{"ha":1106,"x_min":0,"x_max":0,"o":"m 68 476 b 551 -14 68 204 279 -14 b 1038 476 825 -14 1038 204 b 551 968 1038 747 825 968 b 68 476 279 968 68 747 z m 197 476 b 551 843 197 681 351 843 b 907 476 753 843 907 681 b 551 111 907 272 753 111 b 197 476 351 111 197 272 z "},"E":{"ha":785,"x_min":0,"x_max":0,"o":"m 131 957 l 131 0 l 711 0 l 711 121 l 260 121 l 260 410 l 642 410 l 642 531 l 260 531 l 260 836 l 697 836 l 697 957 z "},"I":{"ha":390,"x_min":0,"x_max":0,"o":"m 131 957 l 131 0 l 260 0 l 260 957 z "},"L":{"ha":688,"x_min":0,"x_max":0,"o":"m 131 957 l 131 0 l 650 0 l 650 121 l 260 121 l 260 957 z "},"H":{"ha":983,"x_min":0,"x_max":0,"o":"m 853 957 l 722 957 l 722 535 l 260 535 l 260 957 l 131 957 l 131 0 l 260 0 l 260 417 l 722 417 l 722 0 l 853 0 z "},"C":{"ha":949,"x_min":0,"x_max":0,"o":"m 818 233 b 553 111 753 157 660 111 b 197 476 351 111 197 272 b 553 843 197 681 351 843 b 815 725 658 843 750 796 l 913 806 b 553 968 828 906 701 968 b 68 476 282 968 68 747 b 553 -14 68 204 282 -14 b 915 151 703 -14 831 50 z "},"F":{"ha":731,"x_min":0,"x_max":0,"o":"m 131 957 l 131 0 l 260 0 l 260 410 l 600 410 l 600 531 l 260 531 l 260 836 l 689 836 l 689 957 z "},"D":{"ha":1006,"x_min":0,"x_max":0,"o":"m 501 0 b 932 476 774 0 932 204 b 501 957 932 749 774 957 l 131 957 l 131 0 z m 260 121 l 260 836 l 501 836 b 803 476 700 836 803 678 b 501 121 803 275 700 121 z "},"B":{"ha":872,"x_min":0,"x_max":0,"o":"m 751 710 b 492 957 751 861 653 957 l 131 957 l 131 0 l 522 0 b 803 276 700 0 803 128 b 631 510 803 371 738 488 b 751 710 721 543 751 629 z m 261 560 l 261 838 l 478 838 b 619 706 565 838 619 789 b 492 560 619 628 576 560 z m 513 446 b 669 278 608 446 669 356 b 517 121 669 196 611 121 l 261 121 l 261 446 z "},"a":{"ha":850,"x_min":0,"x_max":0,"o":"m 619 0 l 744 0 l 744 649 l 619 649 l 619 551 b 392 663 575 625 482 663 b 63 325 214 663 63 532 b 392 -14 63 119 214 -14 b 619 100 482 -14 576 28 z m 618 326 b 403 110 618 189 518 110 b 192 326 286 110 192 199 b 403 539 192 454 286 539 b 618 326 508 539 618 465 z "},"P":{"ha":842,"x_min":0,"x_max":0,"o":"m 131 957 l 131 0 l 261 0 l 261 358 l 513 358 b 797 657 715 358 797 507 b 513 957 797 807 715 957 z m 511 836 b 668 657 622 836 668 744 b 504 479 668 568 621 479 l 261 479 l 261 836 z "},"R":{"ha":860,"x_min":0,"x_max":0,"o":"m 532 363 b 782 657 711 378 782 515 b 499 957 782 807 700 957 l 131 957 l 131 0 l 261 0 l 261 358 l 383 358 l 631 0 l 788 0 z m 494 836 b 649 657 606 836 649 744 b 489 479 649 568 606 479 l 261 479 l 261 836 z "},"T":{"ha":789,"x_min":0,"x_max":0,"o":"m 39 957 l 39 835 l 329 835 l 329 0 l 460 0 l 460 835 l 750 835 l 750 957 z "},"Z":{"ha":796,"x_min":0,"x_max":0,"o":"m 58 113 l 58 0 l 728 0 l 728 122 l 219 122 l 728 844 l 728 957 l 78 957 l 78 835 l 564 835 z "},"N":{"ha":950,"x_min":0,"x_max":0,"o":"m 819 0 l 819 957 l 690 957 l 690 242 l 258 957 l 131 957 l 131 0 l 260 0 l 260 721 l 696 0 z "},"Q":{"ha":1106,"x_min":0,"x_max":0,"o":"m 810 60 b 1038 476 947 149 1038 300 b 551 968 1038 747 825 968 b 68 476 279 968 68 747 b 551 -14 68 204 279 -14 b 703 10 603 -14 654 -6 l 810 -160 l 910 -99 z m 633 343 l 535 281 l 632 122 b 526 117 600 115 564 114 b 197 476 338 128 197 283 b 551 843 197 681 351 843 b 907 476 753 843 907 681 b 742 168 907 344 843 233 z "},"G":{"ha":1050,"x_min":0,"x_max":0,"o":"m 875 842 b 551 968 792 919 679 968 b 68 476 279 968 68 747 b 551 -14 68 204 279 -14 b 1004 481 825 -14 1004 143 l 585 481 l 585 368 l 857 368 b 551 110 850 208 722 110 b 197 476 351 110 197 272 b 551 844 197 679 351 844 b 782 756 640 844 721 810 z "},"J":{"ha":390,"x_min":0,"x_max":0,"o":"m -139 -333 b -35 -349 -106 -340 -61 -349 b 260 -37 181 -349 260 -206 l 260 957 l 131 957 l 131 -37 b -35 -222 131 -137 86 -222 b -126 -211 -46 -222 -106 -218 z "},"U":{"ha":942,"x_min":0,"x_max":0,"o":"m 471 111 b 251 329 353 111 251 196 l 251 957 l 121 957 l 121 329 b 471 -14 121 121 281 -14 b 821 329 658 -14 821 121 l 821 957 l 690 957 l 690 329 b 471 111 690 196 589 111 z "},"K":{"ha":803,"x_min":0,"x_max":0,"o":"m 368 479 l 736 957 l 576 957 l 260 543 l 260 957 l 131 957 l 131 0 l 260 0 l 260 408 l 639 0 l 813 0 z "},"M":{"ha":1297,"x_min":0,"x_max":0,"o":"m 649 254 l 311 957 l 193 957 l 76 0 l 204 0 l 292 719 l 593 106 l 707 106 l 1006 719 l 1093 0 l 1221 0 l 1104 957 l 986 957 z "},"V":{"ha":781,"x_min":0,"x_max":0,"o":"m 174 957 l 39 957 l 329 0 l 453 0 l 740 957 l 607 957 l 390 218 z "},"X":{"ha":854,"x_min":0,"x_max":0,"o":"m 504 514 l 803 957 l 647 957 l 426 619 l 207 957 l 51 957 l 349 514 l 15 0 l 169 0 l 426 407 l 683 0 l 839 0 z "},"Y":{"ha":872,"x_min":0,"x_max":0,"o":"m 503 0 l 503 440 l 869 957 l 714 957 l 436 569 l 161 957 l 7 957 l 369 440 l 369 0 z "},"W":{"ha":1251,"x_min":0,"x_max":0,"o":"m 1092 957 l 851 208 l 675 828 l 576 828 l 400 208 l 160 957 l 21 957 l 344 0 l 457 0 l 625 597 l 794 0 l 907 0 l 1231 957 z "},".":{"ha":369,"x_min":0,"x_max":0,"o":"m 94 72 b 185 -14 94 22 136 -14 b 276 72 235 -14 276 22 b 185 160 276 122 235 160 b 94 72 136 160 94 122 z "},":":{"ha":374,"x_min":0,"x_max":0,"o":"m 96 72 b 188 -14 96 22 138 -14 b 278 72 236 -14 278 22 b 188 160 278 122 236 160 b 96 72 138 160 96 122 z m 96 576 b 188 489 96 526 138 489 b 278 576 236 489 278 526 b 188 663 278 626 236 663 b 96 576 138 663 96 626 z "},"…":{"ha":997,"x_min":0,"x_max":0,"o":"m 93 72 b 183 -14 93 22 135 -14 b 275 72 233 -14 275 22 b 183 160 275 122 233 160 b 93 72 135 160 93 122 z m 407 72 b 497 -14 407 22 447 -14 b 589 72 547 -14 589 22 b 497 160 589 122 547 160 b 407 72 447 160 407 122 z m 721 72 b 811 -14 721 22 761 -14 b 903 72 861 -14 903 22 b 811 160 903 122 861 160 b 721 72 761 160 721 122 z "},"¨":{"ha":740,"x_min":0,"x_max":0,"o":"m 167 875 b 253 793 167 826 204 793 b 338 875 299 793 338 826 b 253 957 338 924 299 957 b 167 875 204 957 167 924 z m 401 875 b 488 793 401 826 439 793 b 574 875 536 793 574 826 b 488 957 574 924 536 957 b 401 875 439 957 401 924 z "},"`":{"ha":711,"x_min":0,"x_max":0,"o":"m 344 769 l 465 769 l 331 983 l 179 983 z "},"´":{"ha":711,"x_min":0,"x_max":0,"o":"m 465 983 l 314 983 l 179 769 l 300 769 z "},"ˆ":{"ha":726,"x_min":0,"x_max":0,"o":"m 467 769 l 581 769 l 428 983 l 299 983 l 146 769 l 260 769 l 363 890 z "},"ˇ":{"ha":726,"x_min":0,"x_max":0,"o":"m 363 863 l 260 983 l 146 983 l 299 769 l 428 769 l 581 983 l 467 983 z "},"!":{"ha":367,"x_min":0,"x_max":0,"o":"m 246 957 l 121 957 l 135 257 l 233 257 z m 92 72 b 182 -14 92 22 133 -14 b 274 72 232 -14 274 22 b 182 160 274 122 232 160 b 92 72 133 160 92 122 z "},"˝":{"ha":661,"x_min":0,"x_max":0,"o":"m 350 983 l 222 983 l 111 769 l 226 769 z m 550 983 l 419 983 l 296 769 l 408 769 z "},"˚":{"ha":738,"x_min":0,"x_max":0,"o":"m 222 896 b 367 751 222 814 285 751 b 515 896 450 751 515 814 b 367 1043 515 979 450 1043 b 222 896 285 1043 222 979 z m 296 896 b 367 969 296 939 328 969 b 442 896 410 969 442 939 b 367 825 442 857 410 825 b 296 896 328 825 296 857 z "},"ı":{"ha":336,"x_min":0,"x_max":0,"o":"m 231 649 l 106 649 l 106 0 l 231 0 z "},"¸":{"ha":725,"x_min":0,"x_max":0,"o":"m 315 -162 b 311 -143 313 -157 311 -150 l 311 -132 l 222 -126 b 236 -194 222 -150 226 -174 b 361 -283 260 -250 307 -283 b 415 -272 381 -283 399 -279 b 503 -144 471 -249 503 -199 b 492 -86 503 -126 501 -107 l 421 46 l 353 46 l 413 -121 b 385 -194 424 -150 413 -182 b 315 -162 357 -204 328 -190 z "},"˛":{"ha":725,"x_min":0,"x_max":0,"o":"m 410 -162 b 340 -194 397 -190 368 -204 b 313 -121 313 -182 301 -150 l 372 46 l 304 46 l 233 -86 b 222 -144 224 -107 222 -126 b 310 -272 222 -199 254 -249 b 364 -283 326 -279 344 -283 b 489 -194 418 -283 465 -250 b 503 -126 499 -174 503 -150 l 414 -132 l 414 -143 b 410 -162 414 -150 413 -157 z "},"\"":{"ha":493,"x_min":0,"x_max":0,"o":"m 104 957 l 104 557 l 203 557 l 203 957 z m 290 957 l 290 557 l 389 557 l 389 957 z "},"'":{"ha":307,"x_min":0,"x_max":0,"o":"m 104 957 l 104 557 l 203 557 l 203 957 z "},"¡":{"ha":335,"x_min":0,"x_max":0,"o":"m 217 392 l 118 392 l 104 -315 l 229 -315 z m 75 576 b 165 489 75 526 117 489 b 257 576 215 489 257 526 b 165 663 257 626 215 663 b 75 576 117 663 75 626 z "},"˘":{"ha":668,"x_min":0,"x_max":0,"o":"m 153 949 b 333 771 153 856 206 771 b 515 949 444 771 515 838 l 410 949 b 333 867 410 910 382 867 b 256 949 285 867 256 900 z "},"˙":{"ha":731,"x_min":0,"x_max":0,"o":"m 278 888 b 365 806 278 839 317 806 b 453 888 414 806 453 839 b 365 969 453 936 414 969 b 278 888 317 969 278 936 z "},",":{"ha":357,"x_min":0,"x_max":0,"o":"m 113 -175 b 251 160 172 -126 240 -14 l 118 160 b 24 -146 122 26 78 -69 z "},";":{"ha":394,"x_min":0,"x_max":0,"o":"m 136 -175 b 275 160 196 -126 264 -14 l 135 160 b 40 -146 139 26 94 -69 z m 115 576 b 206 489 115 526 156 489 b 297 576 256 489 297 526 b 206 663 297 626 256 663 b 115 576 156 663 115 626 z "},"˜":{"ha":592,"x_min":0,"x_max":0,"o":"m 233 847 b 278 825 249 847 261 836 b 357 790 299 810 319 790 b 481 949 410 790 474 826 l 396 949 b 357 892 394 904 372 892 b 314 915 342 892 329 903 b 233 949 293 931 272 949 b 111 786 179 949 118 908 l 196 786 b 233 847 197 832 218 847 z "},"À":{"ha":896,"x_min":0,"x_max":0,"o":"m 290 360 l 449 785 l 607 360 z m 651 243 l 744 0 l 881 0 l 518 957 l 379 957 l 15 0 l 153 0 l 246 243 z m 396 1078 l 517 1078 l 382 1292 l 231 1292 z "},"Á":{"ha":896,"x_min":0,"x_max":0,"o":"m 290 360 l 449 785 l 607 360 z m 651 243 l 744 0 l 881 0 l 518 957 l 379 957 l 15 0 l 153 0 l 246 243 z m 669 1292 l 518 1292 l 383 1078 l 504 1078 z "},"Â":{"ha":896,"x_min":0,"x_max":0,"o":"m 290 360 l 449 785 l 607 360 z m 651 243 l 744 0 l 881 0 l 518 957 l 379 957 l 15 0 l 153 0 l 246 243 z m 551 1078 l 665 1078 l 513 1292 l 383 1292 l 231 1078 l 344 1078 l 447 1199 z "},"Ã":{"ha":896,"x_min":0,"x_max":0,"o":"m 290 360 l 449 785 l 607 360 z m 651 243 l 744 0 l 881 0 l 518 957 l 379 957 l 15 0 l 153 0 l 246 243 z m 385 1156 b 429 1133 400 1156 413 1144 b 508 1099 450 1118 471 1099 b 632 1257 561 1099 625 1135 l 547 1257 b 508 1200 546 1213 524 1200 b 465 1224 493 1200 481 1211 b 385 1257 444 1239 424 1257 b 263 1094 331 1257 269 1217 l 347 1094 b 385 1156 349 1140 369 1156 z "},"Ä":{"ha":896,"x_min":0,"x_max":0,"o":"m 290 360 l 449 785 l 607 360 z m 651 243 l 744 0 l 881 0 l 518 957 l 379 957 l 15 0 l 153 0 l 246 243 z m 244 1183 b 331 1101 244 1135 282 1101 b 415 1183 376 1101 415 1135 b 331 1265 415 1232 376 1265 b 244 1183 282 1265 244 1232 z m 479 1183 b 565 1101 479 1135 517 1101 b 651 1183 614 1101 651 1135 b 565 1265 651 1232 614 1265 b 479 1183 517 1265 479 1232 z "},"Å":{"ha":896,"x_min":0,"x_max":0,"o":"m 290 360 l 449 785 l 607 360 z m 651 243 l 744 0 l 881 0 l 518 957 l 379 957 l 15 0 l 153 0 l 246 243 z m 301 1204 b 446 1060 301 1122 364 1060 b 594 1204 529 1060 594 1122 b 446 1351 594 1288 529 1351 b 301 1204 364 1351 301 1288 z m 375 1204 b 446 1278 375 1247 407 1278 b 521 1204 489 1278 521 1247 b 446 1133 521 1165 489 1133 b 375 1204 407 1133 375 1165 z "},"Ç":{"ha":950,"x_min":0,"x_max":0,"o":"m 442 -162 b 438 -143 439 -157 438 -150 l 438 -132 l 349 -126 b 363 -194 349 -150 353 -174 b 488 -283 386 -250 433 -283 b 542 -272 507 -283 525 -279 b 629 -144 597 -249 629 -199 b 618 -86 629 -126 628 -107 l 579 -12 b 917 151 718 -6 835 56 l 819 233 b 554 111 754 157 661 111 b 199 476 353 111 199 272 b 554 843 199 681 353 843 b 817 725 660 843 751 796 l 914 806 b 554 968 829 906 703 968 b 69 476 283 968 69 747 b 499 -11 69 224 254 15 l 539 -121 b 511 -194 550 -150 539 -182 b 442 -162 483 -204 454 -190 z "},"È":{"ha":785,"x_min":0,"x_max":0,"o":"m 131 957 l 131 0 l 711 0 l 711 121 l 260 121 l 260 410 l 642 410 l 642 531 l 260 531 l 260 836 l 697 836 l 697 957 z m 371 1078 l 492 1078 l 357 1292 l 206 1292 z "},"É":{"ha":785,"x_min":0,"x_max":0,"o":"m 131 957 l 131 0 l 711 0 l 711 121 l 260 121 l 260 410 l 642 410 l 642 531 l 260 531 l 260 836 l 697 836 l 697 957 z m 585 1292 l 433 1292 l 299 1078 l 419 1078 z "},"Ê":{"ha":785,"x_min":0,"x_max":0,"o":"m 131 957 l 131 0 l 711 0 l 711 121 l 260 121 l 260 410 l 642 410 l 642 531 l 260 531 l 260 836 l 697 836 l 697 957 z m 496 1078 l 610 1078 l 457 1292 l 328 1292 l 175 1078 l 289 1078 l 392 1199 z "},"Ë":{"ha":785,"x_min":0,"x_max":0,"o":"m 131 957 l 131 0 l 711 0 l 711 121 l 260 121 l 260 410 l 642 410 l 642 531 l 260 531 l 260 836 l 697 836 l 697 957 z m 194 1183 b 281 1101 194 1135 232 1101 b 365 1183 326 1101 365 1135 b 281 1265 365 1232 326 1265 b 194 1183 232 1265 194 1232 z m 429 1183 b 515 1101 429 1135 467 1101 b 601 1183 564 1101 601 1135 b 515 1265 601 1232 564 1265 b 429 1183 467 1265 429 1232 z "},"Ì":{"ha":390,"x_min":0,"x_max":0,"o":"m 131 957 l 131 0 l 260 0 l 260 957 z m 139 1078 l 260 1078 l 125 1292 l -26 1292 z "},"Í":{"ha":390,"x_min":0,"x_max":0,"o":"m 131 957 l 131 0 l 260 0 l 260 957 z m 415 1292 l 264 1292 l 129 1078 l 250 1078 z "},"Î":{"ha":390,"x_min":0,"x_max":0,"o":"m 131 957 l 131 0 l 260 0 l 260 957 z m 299 1078 l 413 1078 l 260 1292 l 131 1292 l -22 1078 l 92 1078 l 194 1199 z "},"Ï":{"ha":390,"x_min":0,"x_max":0,"o":"m 131 957 l 131 0 l 260 0 l 260 957 z m -8 1183 b 78 1101 -8 1135 29 1101 b 163 1183 124 1101 163 1135 b 78 1265 163 1232 124 1265 b -8 1183 29 1265 -8 1232 z m 226 1183 b 313 1101 226 1135 264 1101 b 399 1183 361 1101 399 1135 b 313 1265 399 1232 361 1265 b 226 1183 264 1265 226 1232 z "},"Ñ":{"ha":950,"x_min":0,"x_max":0,"o":"m 819 0 l 819 957 l 690 957 l 690 242 l 258 957 l 131 957 l 131 0 l 260 0 l 260 721 l 696 0 z m 413 1156 b 457 1133 428 1156 440 1144 b 536 1099 478 1118 499 1099 b 660 1257 589 1099 653 1135 l 575 1257 b 536 1200 574 1213 551 1200 b 493 1224 521 1200 508 1211 b 413 1257 472 1239 451 1257 b 290 1094 358 1257 297 1217 l 375 1094 b 413 1156 376 1140 397 1156 z "},"Ò":{"ha":1106,"x_min":0,"x_max":0,"o":"m 68 476 b 551 -14 68 204 279 -14 b 1038 476 825 -14 1038 204 b 551 968 1038 747 825 968 b 68 476 279 968 68 747 z m 197 476 b 551 843 197 681 351 843 b 907 476 753 843 907 681 b 551 111 907 272 753 111 b 197 476 351 111 197 272 z m 506 1078 l 626 1078 l 492 1292 l 340 1292 z "},"Ó":{"ha":1106,"x_min":0,"x_max":0,"o":"m 68 476 b 551 -14 68 204 279 -14 b 1038 476 825 -14 1038 204 b 551 968 1038 747 825 968 b 68 476 279 968 68 747 z m 197 476 b 551 843 197 681 351 843 b 907 476 753 843 907 681 b 551 111 907 272 753 111 b 197 476 351 111 197 272 z m 749 1292 l 597 1292 l 463 1078 l 583 1078 z "},"Ô":{"ha":1106,"x_min":0,"x_max":0,"o":"m 68 476 b 551 -14 68 204 279 -14 b 1038 476 825 -14 1038 204 b 551 968 1038 747 825 968 b 68 476 279 968 68 747 z m 197 476 b 551 843 197 681 351 843 b 907 476 753 843 907 681 b 551 111 907 272 753 111 b 197 476 351 111 197 272 z m 656 1078 l 769 1078 l 617 1292 l 488 1292 l 335 1078 l 449 1078 l 551 1199 z "},"Õ":{"ha":1106,"x_min":0,"x_max":0,"o":"m 68 476 b 551 -14 68 204 279 -14 b 1038 476 825 -14 1038 204 b 551 968 1038 747 825 968 b 68 476 279 968 68 747 z m 197 476 b 551 843 197 681 351 843 b 907 476 753 843 907 681 b 551 111 907 272 753 111 b 197 476 351 111 197 272 z m 490 1156 b 535 1133 506 1156 518 1144 b 614 1099 556 1118 576 1099 b 738 1257 667 1099 731 1135 l 653 1257 b 614 1200 651 1213 629 1200 b 571 1224 599 1200 586 1211 b 490 1257 550 1239 529 1257 b 368 1094 436 1257 375 1217 l 453 1094 b 490 1156 454 1140 475 1156 z "},"Ö":{"ha":1106,"x_min":0,"x_max":0,"o":"m 68 476 b 551 -14 68 204 279 -14 b 1038 476 825 -14 1038 204 b 551 968 1038 747 825 968 b 68 476 279 968 68 747 z m 197 476 b 551 843 197 681 351 843 b 907 476 753 843 907 681 b 551 111 907 272 753 111 b 197 476 351 111 197 272 z m 349 1183 b 435 1101 349 1135 386 1101 b 519 1183 481 1101 519 1135 b 435 1265 519 1232 481 1265 b 349 1183 386 1265 349 1232 z m 583 1183 b 669 1101 583 1135 621 1101 b 756 1183 718 1101 756 1135 b 669 1265 756 1232 718 1265 b 583 1183 621 1265 583 1232 z "},"Ù":{"ha":942,"x_min":0,"x_max":0,"o":"m 471 111 b 251 329 353 111 251 196 l 251 957 l 121 957 l 121 329 b 471 -14 121 121 281 -14 b 821 329 658 -14 821 121 l 821 957 l 690 957 l 690 329 b 471 111 690 196 589 111 z m 436 1078 l 557 1078 l 422 1292 l 271 1292 z "},"Ú":{"ha":942,"x_min":0,"x_max":0,"o":"m 471 111 b 251 329 353 111 251 196 l 251 957 l 121 957 l 121 329 b 471 -14 121 121 281 -14 b 821 329 658 -14 821 121 l 821 957 l 690 957 l 690 329 b 471 111 690 196 589 111 z m 657 1292 l 506 1292 l 371 1078 l 492 1078 z "},"Û":{"ha":942,"x_min":0,"x_max":0,"o":"m 471 111 b 251 329 353 111 251 196 l 251 957 l 121 957 l 121 329 b 471 -14 121 121 281 -14 b 821 329 658 -14 821 121 l 821 957 l 690 957 l 690 329 b 471 111 690 196 589 111 z m 574 1078 l 688 1078 l 535 1292 l 406 1292 l 253 1078 l 367 1078 l 469 1199 z "},"Ü":{"ha":942,"x_min":0,"x_max":0,"o":"m 471 111 b 251 329 353 111 251 196 l 251 957 l 121 957 l 121 329 b 471 -14 121 121 281 -14 b 821 329 658 -14 821 121 l 821 957 l 690 957 l 690 329 b 471 111 690 196 589 111 z m 267 1183 b 353 1101 267 1135 304 1101 b 438 1183 399 1101 438 1135 b 353 1265 438 1232 399 1265 b 267 1183 304 1265 267 1232 z m 501 1183 b 588 1101 501 1135 539 1101 b 674 1183 636 1101 674 1135 b 588 1265 674 1232 636 1265 b 501 1183 539 1265 501 1232 z "},"Ý":{"ha":872,"x_min":0,"x_max":0,"o":"m 503 0 l 503 440 l 869 957 l 714 957 l 436 569 l 161 957 l 7 957 l 369 440 l 369 0 z m 638 1292 l 486 1292 l 351 1078 l 472 1078 z "},"à":{"ha":850,"x_min":0,"x_max":0,"o":"m 619 0 l 744 0 l 744 649 l 619 649 l 619 551 b 392 663 575 625 482 663 b 63 325 214 663 63 532 b 392 -14 63 119 214 -14 b 619 100 482 -14 576 28 z m 618 326 b 403 110 618 189 518 110 b 192 326 286 110 192 199 b 403 539 192 454 286 539 b 618 326 508 539 618 465 z m 397 769 l 518 769 l 383 983 l 232 983 z "},"á":{"ha":850,"x_min":0,"x_max":0,"o":"m 619 0 l 744 0 l 744 649 l 619 649 l 619 551 b 392 663 575 625 482 663 b 63 325 214 663 63 532 b 392 -14 63 119 214 -14 b 619 100 482 -14 576 28 z m 618 326 b 403 110 618 189 518 110 b 192 326 286 110 192 199 b 403 539 192 454 286 539 b 618 326 508 539 618 465 z m 594 983 l 443 983 l 308 769 l 429 769 z "},"â":{"ha":850,"x_min":0,"x_max":0,"o":"m 619 0 l 744 0 l 744 649 l 619 649 l 619 551 b 392 663 575 625 482 663 b 63 325 214 663 63 532 b 392 -14 63 119 214 -14 b 619 100 482 -14 576 28 z m 618 326 b 403 110 618 189 518 110 b 192 326 286 110 192 199 b 403 539 192 454 286 539 b 618 326 508 539 618 465 z m 504 769 l 618 769 l 465 983 l 336 983 l 183 769 l 297 769 l 400 890 z "},"ã":{"ha":850,"x_min":0,"x_max":0,"o":"m 619 0 l 744 0 l 744 649 l 619 649 l 619 551 b 392 663 575 625 482 663 b 63 325 214 663 63 532 b 392 -14 63 119 214 -14 b 619 100 482 -14 576 28 z m 618 326 b 403 110 618 189 518 110 b 192 326 286 110 192 199 b 403 539 192 454 286 539 b 618 326 508 539 618 465 z m 361 847 b 406 825 376 847 389 836 b 485 790 426 810 447 790 b 608 949 538 790 601 826 l 524 949 b 485 892 522 904 500 892 b 442 915 469 892 457 903 b 361 949 421 931 400 949 b 239 786 307 949 246 908 l 324 786 b 361 847 325 832 346 847 z "},"ä":{"ha":850,"x_min":0,"x_max":0,"o":"m 619 0 l 744 0 l 744 649 l 619 649 l 619 551 b 392 663 575 625 482 663 b 63 325 214 663 63 532 b 392 -14 63 119 214 -14 b 619 100 482 -14 576 28 z m 618 326 b 403 110 618 189 518 110 b 192 326 286 110 192 199 b 403 539 192 454 286 539 b 618 326 508 539 618 465 z m 200 875 b 286 793 200 826 238 793 b 371 875 332 793 371 826 b 286 957 371 924 332 957 b 200 875 238 957 200 924 z m 435 875 b 521 793 435 826 472 793 b 607 875 569 793 607 826 b 521 957 607 924 569 957 b 435 875 472 957 435 924 z "},"å":{"ha":850,"x_min":0,"x_max":0,"o":"m 619 0 l 744 0 l 744 649 l 619 649 l 619 551 b 392 663 575 625 482 663 b 63 325 214 663 63 532 b 392 -14 63 119 214 -14 b 619 100 482 -14 576 28 z m 618 326 b 403 110 618 189 518 110 b 192 326 286 110 192 199 b 403 539 192 454 286 539 b 618 326 508 539 618 465 z m 257 896 b 401 751 257 814 319 751 b 550 896 485 751 550 814 b 401 1043 550 979 485 1043 b 257 896 319 1043 257 979 z m 331 896 b 401 969 331 939 363 969 b 476 896 444 969 476 939 b 401 825 476 857 444 825 b 331 896 363 825 331 857 z "},"ç":{"ha":711,"x_min":0,"x_max":0,"o":"m 439 -11 b 657 92 526 -4 603 32 l 560 172 b 406 108 521 132 465 108 b 188 326 289 108 188 197 b 406 539 188 457 289 539 b 560 478 465 539 521 517 l 656 558 b 406 663 594 625 506 663 b 63 326 221 663 63 532 b 360 -11 63 138 197 7 l 400 -121 b 372 -194 411 -150 400 -182 b 303 -162 344 -204 315 -190 b 299 -143 300 -157 299 -150 l 299 -132 l 210 -126 b 224 -194 210 -150 214 -174 b 349 -283 247 -250 294 -283 b 403 -272 368 -283 386 -279 b 490 -144 458 -249 490 -199 b 479 -86 490 -126 489 -107 z "},"è":{"ha":772,"x_min":0,"x_max":0,"o":"m 189 375 b 394 549 204 485 288 549 b 592 375 500 549 576 485 z m 717 326 b 394 663 717 532 579 663 b 63 326 210 663 63 532 b 394 -14 63 121 210 -14 b 693 158 521 -14 638 43 b 585 200 658 174 618 185 b 399 100 547 135 476 100 b 189 276 288 100 204 167 l 715 276 b 717 326 717 292 717 311 z m 343 769 l 464 769 l 329 983 l 178 983 z "},"é":{"ha":772,"x_min":0,"x_max":0,"o":"m 189 375 b 394 549 204 485 288 549 b 592 375 500 549 576 485 z m 717 326 b 394 663 717 532 579 663 b 63 326 210 663 63 532 b 394 -14 63 121 210 -14 b 693 158 521 -14 638 43 b 585 200 658 174 618 185 b 399 100 547 135 476 100 b 189 276 288 100 204 167 l 715 276 b 717 326 717 292 717 311 z m 588 983 l 436 983 l 301 769 l 422 769 z "},"ê":{"ha":772,"x_min":0,"x_max":0,"o":"m 189 375 b 394 549 204 485 288 549 b 592 375 500 549 576 485 z m 717 326 b 394 663 717 532 579 663 b 63 326 210 663 63 532 b 394 -14 63 121 210 -14 b 693 158 521 -14 638 43 b 585 200 658 174 618 185 b 399 100 547 135 476 100 b 189 276 288 100 204 167 l 715 276 b 717 326 717 292 717 311 z m 493 769 l 607 769 l 454 983 l 325 983 l 172 769 l 286 769 l 389 890 z "},"ë":{"ha":772,"x_min":0,"x_max":0,"o":"m 189 375 b 394 549 204 485 288 549 b 592 375 500 549 576 485 z m 717 326 b 394 663 717 532 579 663 b 63 326 210 663 63 532 b 394 -14 63 121 210 -14 b 693 158 521 -14 638 43 b 585 200 658 174 618 185 b 399 100 547 135 476 100 b 189 276 288 100 204 167 l 715 276 b 717 326 717 292 717 311 z m 186 875 b 272 793 186 826 224 793 b 357 875 318 793 357 826 b 272 957 357 924 318 957 b 186 875 224 957 186 924 z m 421 875 b 507 793 421 826 458 793 b 593 875 556 793 593 826 b 507 957 593 924 556 957 b 421 875 458 957 421 924 z "},"ì":{"ha":335,"x_min":0,"x_max":0,"o":"m 229 649 l 106 649 l 106 0 l 229 0 z m 107 769 l 228 769 l 93 983 l -58 983 z "},"í":{"ha":335,"x_min":0,"x_max":0,"o":"m 229 649 l 106 649 l 106 0 l 229 0 z m 390 983 l 239 983 l 104 769 l 225 769 z "},"î":{"ha":335,"x_min":0,"x_max":0,"o":"m 229 649 l 106 649 l 106 0 l 229 0 z m 278 769 l 392 769 l 239 983 l 110 983 l -43 769 l 71 769 l 174 890 z "},"ï":{"ha":335,"x_min":0,"x_max":0,"o":"m 229 649 l 106 649 l 106 0 l 229 0 z m -29 875 b 57 793 -29 826 8 793 b 142 875 103 793 142 826 b 57 957 142 924 103 957 b -29 875 8 957 -29 924 z m 206 875 b 292 793 206 826 243 793 b 378 875 340 793 378 826 b 292 957 378 924 340 957 b 206 875 243 957 206 924 z "},"ñ":{"ha":782,"x_min":0,"x_max":0,"o":"m 232 350 b 415 539 232 488 324 539 b 558 367 504 539 558 476 l 558 0 l 685 0 l 685 375 b 435 663 685 558 597 663 b 232 551 364 663 269 629 l 232 649 l 106 649 l 106 0 l 232 0 z m 329 847 b 374 825 344 847 357 836 b 453 790 394 810 415 790 b 576 949 506 790 569 826 l 492 949 b 453 892 490 904 468 892 b 410 915 438 892 425 903 b 329 949 389 931 368 949 b 207 786 275 949 214 908 l 292 786 b 329 847 293 832 314 847 z "},"ò":{"ha":804,"x_min":0,"x_max":0,"o":"m 401 -14 b 742 326 586 -14 742 121 b 401 663 742 532 586 663 b 63 326 217 663 63 532 b 401 -14 63 121 217 -14 z m 401 108 b 188 326 283 108 188 193 b 401 539 188 457 283 539 b 615 326 517 539 615 457 b 401 108 615 193 517 108 z m 351 769 l 472 769 l 338 983 l 186 983 z "},"ó":{"ha":804,"x_min":0,"x_max":0,"o":"m 401 -14 b 742 326 586 -14 742 121 b 401 663 742 532 586 663 b 63 326 217 663 63 532 b 401 -14 63 121 217 -14 z m 401 108 b 188 326 283 108 188 193 b 401 539 188 457 283 539 b 615 326 517 539 615 457 b 401 108 615 193 517 108 z m 606 983 l 454 983 l 319 769 l 440 769 z "},"ô":{"ha":804,"x_min":0,"x_max":0,"o":"m 401 -14 b 742 326 586 -14 742 121 b 401 663 742 532 586 663 b 63 326 217 663 63 532 b 401 -14 63 121 217 -14 z m 401 108 b 188 326 283 108 188 193 b 401 539 188 457 283 539 b 615 326 517 539 615 457 b 401 108 615 193 517 108 z m 506 769 l 619 769 l 467 983 l 338 983 l 185 769 l 299 769 l 401 890 z "},"õ":{"ha":804,"x_min":0,"x_max":0,"o":"m 401 -14 b 742 326 586 -14 742 121 b 401 663 742 532 586 663 b 63 326 217 663 63 532 b 401 -14 63 121 217 -14 z m 401 108 b 188 326 283 108 188 193 b 401 539 188 457 283 539 b 615 326 517 539 615 457 b 401 108 615 193 517 108 z m 339 847 b 383 825 354 847 367 836 b 463 790 404 810 425 790 b 586 949 515 790 579 826 l 501 949 b 463 892 500 904 478 892 b 419 915 447 892 435 903 b 339 949 399 931 378 949 b 217 786 285 949 224 908 l 301 786 b 339 847 303 832 324 847 z "},"ö":{"ha":804,"x_min":0,"x_max":0,"o":"m 401 -14 b 742 326 586 -14 742 121 b 401 663 742 532 586 663 b 63 326 217 663 63 532 b 401 -14 63 121 217 -14 z m 401 108 b 188 326 283 108 188 193 b 401 539 188 457 283 539 b 615 326 517 539 615 457 b 401 108 615 193 517 108 z m 199 875 b 285 793 199 826 236 793 b 369 875 331 793 369 826 b 285 957 369 924 331 957 b 199 875 236 957 199 924 z m 433 875 b 519 793 433 826 471 793 b 606 875 568 793 606 826 b 519 957 606 924 568 957 b 433 875 471 957 433 924 z "},"ù":{"ha":781,"x_min":0,"x_max":0,"o":"m 360 769 l 481 769 l 346 983 l 194 983 z m 549 299 b 365 110 549 160 457 110 b 224 282 276 110 224 172 l 224 649 l 97 649 l 97 274 b 347 -14 96 90 185 -14 b 549 97 418 -14 508 19 l 549 0 l 675 0 l 675 649 l 549 649 z "},"ú":{"ha":781,"x_min":0,"x_max":0,"o":"m 603 983 l 451 983 l 317 769 l 438 769 z m 549 299 b 365 110 549 160 457 110 b 224 282 276 110 224 172 l 224 649 l 97 649 l 97 274 b 347 -14 96 90 185 -14 b 549 97 418 -14 508 19 l 549 0 l 675 0 l 675 649 l 549 649 z "},"û":{"ha":781,"x_min":0,"x_max":0,"o":"m 481 769 l 594 769 l 442 983 l 313 983 l 160 769 l 274 769 l 376 890 z m 549 299 b 365 110 549 160 457 110 b 224 282 276 110 224 172 l 224 649 l 97 649 l 97 274 b 347 -14 96 90 185 -14 b 549 97 418 -14 508 19 l 549 0 l 675 0 l 675 649 l 549 649 z "},"ü":{"ha":781,"x_min":0,"x_max":0,"o":"m 196 875 b 282 793 196 826 233 793 b 367 875 328 793 367 826 b 282 957 367 924 328 957 b 196 875 233 957 196 924 z m 431 875 b 517 793 431 826 468 793 b 603 875 565 793 603 826 b 517 957 603 924 565 957 b 431 875 468 957 431 924 z m 549 299 b 365 110 549 160 457 110 b 224 282 276 110 224 172 l 224 649 l 97 649 l 97 274 b 347 -14 96 90 185 -14 b 549 97 418 -14 508 19 l 549 0 l 675 0 l 675 649 l 549 649 z "},"ý":{"ha":707,"x_min":0,"x_max":0,"o":"m 281 -315 l 683 649 l 549 649 l 354 179 l 160 649 l 25 649 l 285 19 l 149 -315 z m 533 983 l 382 983 l 247 769 l 368 769 z "},"Ž":{"ha":796,"x_min":0,"x_max":0,"o":"m 58 113 l 58 0 l 728 0 l 728 122 l 219 122 l 728 844 l 728 957 l 78 957 l 78 835 l 564 835 z m 392 1171 l 289 1292 l 175 1292 l 328 1078 l 457 1078 l 610 1292 l 496 1292 z "},"ž":{"ha":697,"x_min":0,"x_max":0,"o":"m 629 649 l 81 649 l 81 528 l 444 528 l 58 104 l 58 0 l 629 0 l 629 121 l 236 121 l 629 544 z m 343 863 l 240 983 l 126 983 l 279 769 l 408 769 l 561 983 l 447 983 z "},"Ÿ":{"ha":872,"x_min":0,"x_max":0,"o":"m 503 0 l 503 440 l 869 957 l 714 957 l 436 569 l 161 957 l 7 957 l 369 440 l 369 0 z m 235 1183 b 321 1101 235 1135 272 1101 b 406 1183 367 1101 406 1135 b 321 1265 406 1232 367 1265 b 235 1183 272 1265 235 1232 z m 469 1183 b 556 1101 469 1135 507 1101 b 642 1183 604 1101 642 1135 b 556 1265 642 1232 604 1265 b 469 1183 507 1265 469 1232 z "},"Œ":{"ha":1556,"x_min":0,"x_max":0,"o":"m 903 957 l 903 803 b 550 968 819 903 694 968 b 69 476 278 968 69 747 b 550 -14 69 204 278 -14 b 903 150 694 -14 819 50 l 903 0 l 1482 0 l 1482 128 l 1032 128 l 1032 406 l 1413 406 l 1413 533 l 1032 533 l 1032 829 l 1467 829 l 1467 957 z m 199 476 b 550 839 199 676 350 839 b 903 492 743 839 896 685 l 903 461 b 550 115 896 268 743 115 b 199 476 350 115 199 276 z "},"Æ":{"ha":1297,"x_min":0,"x_max":0,"o":"m 306 240 l 646 240 l 646 0 l 1224 0 l 1224 128 l 774 128 l 774 406 l 1154 406 l 1154 533 l 774 533 l 774 829 l 1208 829 l 1208 957 l 604 957 l 0 0 l 151 0 z m 382 364 l 646 778 l 646 364 z "},"þ":{"ha":836,"x_min":0,"x_max":0,"o":"m 106 -296 l 232 -296 l 232 82 b 443 -14 278 19 361 -14 b 774 325 628 -14 774 121 b 443 661 774 531 628 661 b 232 568 361 661 278 631 l 232 1000 l 106 1000 z m 649 325 b 443 111 649 200 558 111 b 232 325 328 111 232 186 b 443 535 232 464 342 535 b 649 325 558 535 649 453 z "},"[":{"ha":454,"x_min":0,"x_max":0,"o":"m 117 -315 l 396 -315 l 396 -200 l 242 -200 l 242 842 l 396 842 l 396 957 l 117 957 z "},"]":{"ha":454,"x_min":0,"x_max":0,"o":"m 338 957 l 58 957 l 58 842 l 213 842 l 213 -200 l 58 -200 l 58 -315 l 338 -315 z "},"@":{"ha":1347,"x_min":0,"x_max":0,"o":"m 833 178 b 1032 -21 833 26 931 -21 b 1294 374 1228 -21 1294 211 b 668 960 1294 711 1006 960 b 68 350 331 960 68 688 b 668 -256 68 13 331 -256 l 700 -256 l 700 -157 l 668 -157 b 167 350 385 -157 167 67 b 668 861 167 632 385 861 b 1194 374 951 861 1194 657 b 1032 76 1194 261 1165 76 b 932 168 985 76 932 90 l 932 369 b 846 558 928 443 897 510 b 654 635 796 607 728 635 b 376 357 503 635 376 513 b 654 81 376 204 503 81 b 792 128 703 81 753 100 l 792 246 b 654 179 749 203 703 179 b 475 357 554 179 475 258 b 654 536 475 458 554 536 b 833 357 754 536 833 458 z "},"€":{"ha":1088,"x_min":0,"x_max":0,"o":"m 721 507 l 721 585 l 346 585 b 657 825 386 721 503 825 b 917 708 756 825 844 779 l 1004 796 b 657 949 910 890 790 949 b 214 585 431 949 263 792 l 72 585 l 72 507 z m 72 422 l 72 346 l 215 346 b 657 -12 263 140 435 -12 b 1006 140 790 -12 911 46 l 918 229 b 657 111 846 157 756 111 b 347 346 507 111 388 213 l 721 346 l 721 422 z "},"/":{"ha":696,"x_min":0,"x_max":0,"o":"m 653 957 l 515 957 l 43 0 l 181 0 z "},"\\":{"ha":696,"x_min":0,"x_max":0,"o":"m 515 0 l 653 0 l 181 957 l 43 957 z "},"Ð":{"ha":1006,"x_min":0,"x_max":0,"o":"m 504 0 b 931 476 776 0 931 204 b 504 957 931 749 776 957 l 139 957 l 139 526 l 10 526 l 10 432 l 139 432 l 139 0 z m 268 526 l 268 829 l 504 829 b 801 476 700 829 801 676 b 504 128 801 276 700 128 l 268 128 l 268 432 l 497 432 l 497 526 z "},"%":{"ha":947,"x_min":0,"x_max":0,"o":"m 739 935 l 647 935 l 190 0 l 282 0 z m 53 749 b 238 564 53 643 132 564 b 424 749 342 564 424 643 b 238 935 424 853 342 935 b 53 749 132 935 53 853 z m 150 749 b 238 838 150 797 188 838 b 326 749 286 838 326 797 b 238 661 326 699 286 661 b 150 749 188 661 150 699 z m 525 171 b 710 -14 525 65 604 -14 b 896 171 814 -14 896 65 b 710 357 896 275 814 357 b 525 171 604 357 525 275 z m 622 171 b 710 260 622 219 660 260 b 799 171 758 260 799 219 b 710 83 799 121 758 83 b 622 171 660 83 622 121 z "},"‰":{"ha":1376,"x_min":0,"x_max":0,"o":"m 740 935 l 649 935 l 192 0 l 283 0 z m 54 749 b 239 564 54 643 133 564 b 425 749 343 564 425 643 b 239 935 425 853 343 935 b 54 749 133 935 54 853 z m 151 749 b 239 838 151 797 189 838 b 328 749 288 838 328 797 b 239 661 328 699 288 661 b 151 749 189 661 151 699 z m 526 171 b 711 -14 526 65 606 -14 b 897 171 815 -14 897 65 b 711 357 897 275 815 357 b 526 171 606 357 526 275 z m 624 171 b 711 260 624 219 661 260 b 800 171 760 260 800 219 b 711 83 800 121 760 83 b 624 171 661 83 624 121 z m 956 171 b 1140 -14 956 65 1035 -14 b 1326 171 1244 -14 1326 65 b 1140 357 1326 275 1244 357 b 956 171 1035 357 956 275 z m 1053 171 b 1140 260 1053 219 1090 260 b 1229 171 1189 260 1229 219 b 1140 83 1229 121 1189 83 b 1053 171 1090 83 1053 121 z "},"·":{"ha":374,"x_min":0,"x_max":0,"o":"m 96 349 b 186 263 96 299 138 263 b 278 349 236 263 278 299 b 186 436 278 399 236 436 b 96 349 138 436 96 399 z "},"Þ":{"ha":794,"x_min":0,"x_max":0,"o":"m 454 192 b 747 492 617 192 747 310 b 454 786 747 671 617 786 l 260 786 l 260 957 l 131 957 l 131 0 l 260 0 l 260 192 z m 260 317 l 260 665 l 443 664 b 619 492 539 657 619 600 b 454 317 619 386 547 317 z "},"µ":{"ha":771,"x_min":0,"x_max":0,"o":"m 115 -212 l 242 -212 l 242 29 b 369 -12 274 -3 318 -12 b 553 79 432 -12 513 17 l 553 0 l 679 0 l 679 649 l 553 649 l 553 296 b 369 111 553 161 457 111 b 242 274 286 111 242 174 l 242 649 l 115 649 z "},"•":{"ha":640,"x_min":0,"x_max":0,"o":"m 113 332 b 321 133 113 215 207 133 b 528 332 433 133 528 215 b 321 529 528 447 433 529 b 113 332 207 529 113 447 z "},"¥":{"ha":954,"x_min":0,"x_max":0,"o":"m 542 351 l 796 351 l 796 440 l 542 440 l 908 957 l 753 957 l 475 569 l 200 957 l 46 957 l 408 440 l 157 440 l 157 351 l 408 351 l 408 243 l 157 243 l 157 154 l 408 154 l 408 0 l 542 0 l 542 154 l 796 154 l 796 243 l 542 243 z "},"—":{"ha":1113,"x_min":0,"x_max":0,"o":"m 99 379 l 99 271 l 1014 271 l 1014 379 z "},"–":{"ha":826,"x_min":0,"x_max":0,"o":"m 99 379 l 99 271 l 728 271 l 728 379 z "},"‡":{"ha":622,"x_min":0,"x_max":0,"o":"m 372 690 l 372 939 l 249 939 l 249 690 l 82 690 l 82 565 l 249 565 l 249 239 l 82 239 l 82 115 l 249 115 l 249 -168 l 372 -168 l 372 115 l 540 115 l 540 239 l 372 239 l 372 565 l 540 565 l 540 690 z "},"†":{"ha":575,"x_min":0,"x_max":0,"o":"m 349 690 l 349 939 l 225 939 l 225 690 l 58 690 l 58 565 l 225 565 l 225 -168 l 349 -168 l 349 565 l 517 565 l 517 690 z "},"Ł":{"ha":693,"x_min":0,"x_max":0,"o":"m 265 628 l 265 957 l 138 957 l 138 547 l 47 490 l 47 399 l 138 456 l 138 0 l 654 0 l 654 128 l 265 128 l 265 536 l 410 626 l 410 718 z "},"ł":{"ha":354,"x_min":0,"x_max":0,"o":"m 242 1001 l 117 1001 l 117 532 l 24 472 l 24 383 l 117 443 l 117 0 l 242 0 l 242 522 l 349 592 l 349 681 l 242 611 z "},"|":{"ha":319,"x_min":0,"x_max":0,"o":"m 203 1104 l 117 1104 l 117 -165 l 203 -165 z "},"Ø":{"ha":1104,"x_min":0,"x_max":0,"o":"m 247 92 b 550 -14 331 25 433 -14 b 1036 476 824 -14 1036 204 b 925 790 1036 597 996 703 l 1036 904 l 971 968 l 861 856 b 550 968 778 926 671 968 b 67 476 278 968 67 747 b 182 157 67 354 110 244 l 71 43 l 136 -22 z m 196 476 b 550 843 196 681 350 843 b 772 764 635 843 713 813 l 271 249 b 196 476 222 311 196 388 z m 550 111 b 336 183 467 111 396 138 l 835 697 b 906 476 879 636 906 560 b 550 111 906 272 751 111 z "},"ø":{"ha":801,"x_min":0,"x_max":0,"o":"m 200 46 b 400 -14 257 6 324 -14 b 740 326 585 -14 740 121 b 674 533 740 410 717 478 l 743 604 l 678 668 l 608 597 b 400 663 549 640 478 663 b 61 326 215 663 61 532 b 133 110 61 239 88 167 l 56 31 l 121 -35 z m 400 539 b 519 506 444 539 485 528 l 221 201 b 186 326 197 236 186 278 b 400 539 186 457 282 539 z m 400 108 b 289 138 357 108 321 118 l 583 440 b 614 326 601 408 614 369 b 400 108 614 193 515 108 z "},"ﬁ":{"ha":876,"x_min":0,"x_max":0,"o":"m 649 0 l 774 0 l 774 649 l 290 649 l 290 714 b 411 881 290 797 306 881 l 482 881 l 482 1001 l 411 1001 b 163 714 236 1001 163 885 l 163 649 l 38 649 l 38 542 l 163 542 l 163 0 l 290 0 l 290 542 l 649 542 z m 624 888 b 711 806 624 839 663 806 b 799 888 760 806 799 839 b 711 969 799 936 760 969 b 624 888 663 969 624 936 z "},"ﬂ":{"ha":856,"x_min":0,"x_max":0,"o":"m 624 0 l 750 0 l 750 1001 l 411 1001 b 163 714 236 1001 163 885 l 163 649 l 38 649 l 38 542 l 163 542 l 163 0 l 290 0 l 290 542 l 440 542 l 440 649 l 290 649 l 290 714 b 411 881 290 797 306 881 l 624 881 z "},"=":{"ha":844,"x_min":0,"x_max":0,"o":"m 103 542 l 103 421 l 742 421 l 742 542 z m 103 274 l 103 153 l 742 153 l 742 274 z "},"+":{"ha":721,"x_min":0,"x_max":0,"o":"m 300 424 l 75 424 l 75 303 l 300 303 l 300 76 l 421 76 l 421 303 l 646 303 l 646 424 l 421 424 l 421 649 l 300 649 z "},"−":{"ha":800,"x_min":0,"x_max":0,"o":"m 103 424 l 103 310 l 697 310 l 697 424 z "},"±":{"ha":753,"x_min":0,"x_max":0,"o":"m 315 506 l 96 506 l 96 385 l 315 385 l 315 183 l 436 183 l 436 385 l 657 385 l 657 506 l 436 506 l 436 704 l 315 704 z m 657 0 l 657 114 l 96 114 l 96 0 z "},"×":{"ha":690,"x_min":0,"x_max":0,"o":"m 261 379 l 88 206 l 174 122 l 344 293 l 519 119 l 603 207 l 431 379 l 603 550 l 519 638 l 344 464 l 174 635 l 88 551 z "},"÷":{"ha":746,"x_min":0,"x_max":0,"o":"m 282 125 b 372 39 282 75 324 39 b 464 125 422 39 464 75 b 372 213 464 176 422 213 b 282 125 324 213 282 176 z m 282 589 b 372 501 282 539 324 501 b 464 589 422 501 464 539 b 372 675 464 639 422 675 b 282 589 324 675 282 639 z m 658 297 l 658 413 l 88 413 l 88 297 z "},"<":{"ha":864,"x_min":0,"x_max":0,"o":"m 769 44 l 769 176 l 240 374 l 769 568 l 769 703 l 65 433 l 65 313 z "},">":{"ha":863,"x_min":0,"x_max":0,"o":"m 797 313 l 797 433 l 94 703 l 94 568 l 622 374 l 94 176 l 94 43 z "},"-":{"ha":675,"x_min":0,"x_max":0,"o":"m 96 385 l 96 264 l 579 264 l 579 385 z "},"_":{"ha":971,"x_min":0,"x_max":0,"o":"m 96 -39 l 96 -151 l 875 -151 l 875 -39 z "},"¬":{"ha":890,"x_min":0,"x_max":0,"o":"m 782 499 l 103 499 l 103 378 l 661 378 l 661 164 l 782 164 z "},"¶":{"ha":904,"x_min":0,"x_max":0,"o":"m 451 957 l 350 957 b 49 656 182 957 49 822 b 336 354 49 493 178 365 l 336 -78 l 451 -78 z m 532 957 l 532 -89 b 457 -153 532 -124 494 -153 l 335 -153 l 335 -258 l 457 -258 b 647 -68 558 -254 647 -162 l 647 840 l 675 840 b 738 767 713 840 738 804 l 738 649 l 851 649 l 851 767 b 661 957 851 871 765 957 z "},"¦":{"ha":325,"x_min":0,"x_max":0,"o":"m 119 563 l 206 563 l 206 1104 l 119 1104 z m 206 374 l 119 374 l 119 -165 l 206 -165 z "},"ƒ":{"ha":857,"x_min":0,"x_max":0,"o":"m 292 22 b 147 -140 274 -50 249 -140 l 65 -140 l 42 -254 b 176 -256 133 -261 158 -260 b 426 58 332 -233 393 -99 b 529 532 460 218 494 372 l 681 532 l 704 649 l 554 649 b 710 858 574 728 586 858 l 790 858 l 814 974 l 763 976 b 681 974 740 978 701 978 b 440 704 540 956 471 843 l 428 649 l 308 649 l 283 532 l 403 532 z "},"©":{"ha":1124,"x_min":0,"x_max":0,"o":"m 694 378 b 565 311 654 338 608 311 b 410 469 476 311 410 382 b 565 626 410 554 476 626 b 692 563 608 626 654 600 l 756 628 b 565 719 699 688 631 719 b 315 469 425 719 315 608 b 565 218 315 331 425 218 b 757 308 633 218 703 251 z m 76 476 b 561 -14 76 204 290 -14 b 1047 476 832 -14 1047 204 b 561 968 1047 747 832 968 b 76 476 290 968 76 747 z m 161 476 b 561 882 161 700 339 882 b 961 476 783 882 961 700 b 561 72 961 254 783 72 b 161 476 339 72 161 254 z "},"®":{"ha":1124,"x_min":0,"x_max":0,"o":"m 636 406 b 743 558 713 426 743 492 b 585 719 743 639 692 719 l 394 719 l 394 229 l 490 229 l 490 399 l 522 399 l 644 229 l 761 229 z m 585 625 b 649 558 625 625 649 593 b 582 493 649 525 625 493 l 490 493 l 490 625 z m 76 476 b 561 -14 76 204 290 -14 b 1047 476 832 -14 1047 204 b 561 968 1047 747 832 968 b 76 476 290 968 76 747 z m 161 476 b 561 882 161 700 339 882 b 961 476 783 882 961 700 b 561 72 961 254 783 72 b 161 476 339 72 161 254 z "},"°":{"ha":514,"x_min":0,"x_max":0,"o":"m 75 786 b 257 604 75 686 157 604 b 439 786 357 604 439 686 b 257 968 439 886 357 968 b 75 786 157 968 75 886 z m 171 786 b 257 872 171 835 208 872 b 343 786 306 872 343 835 b 257 700 343 738 306 700 b 171 786 208 700 171 738 z "},"¢":{"ha":738,"x_min":0,"x_max":0,"o":"m 349 -162 l 435 -162 l 435 -12 b 664 92 525 -7 607 29 l 567 172 b 413 108 528 132 472 108 b 194 326 296 108 194 197 b 413 539 194 457 296 539 b 567 478 472 539 528 517 l 663 558 b 435 661 606 619 525 657 l 435 804 l 349 804 l 349 657 b 69 326 192 631 69 507 b 349 -8 69 144 192 18 z "},"$":{"ha":781,"x_min":0,"x_max":0,"o":"m 436 -12 b 719 236 601 -1 704 108 b 464 536 740 390 643 490 l 339 567 b 203 700 218 596 203 658 b 382 844 203 788 288 844 b 563 688 488 844 563 783 l 692 688 b 436 964 692 840 586 946 l 436 1104 l 350 1104 l 350 965 b 74 699 201 950 74 850 b 307 449 74 615 103 500 l 431 418 b 593 247 517 400 600 349 b 400 107 582 175 522 107 b 194 276 279 107 194 193 l 65 276 b 350 -11 65 138 181 11 l 350 -165 l 436 -165 z "},"#":{"ha":911,"x_min":0,"x_max":0,"o":"m 715 715 l 782 957 l 661 957 l 594 715 l 446 715 l 513 957 l 392 957 l 325 715 l 181 715 l 150 597 l 292 597 l 226 354 l 82 354 l 50 236 l 194 236 l 128 0 l 246 0 l 314 236 l 463 236 l 396 0 l 515 0 l 583 236 l 729 236 l 761 354 l 615 354 l 682 597 l 829 597 l 861 715 z m 413 597 l 561 597 l 494 354 l 346 354 z "},"¤":{"ha":847,"x_min":0,"x_max":0,"o":"m 271 471 b 424 625 271 554 339 625 b 578 471 507 625 578 554 b 424 318 578 386 507 318 b 271 471 339 318 271 386 z m 274 246 b 424 200 317 217 368 200 b 574 246 479 200 531 217 l 671 147 l 747 224 l 650 322 b 696 471 681 365 696 415 b 650 621 696 528 678 578 l 747 719 l 671 796 l 574 697 b 424 743 531 726 478 743 b 275 697 368 743 318 728 l 176 796 l 100 719 l 199 621 b 153 471 169 578 153 526 b 197 322 153 415 168 365 l 100 224 l 176 147 z "},"&":{"ha":913,"x_min":0,"x_max":0,"o":"m 393 586 b 271 718 321 586 271 651 b 399 836 271 786 325 836 b 526 757 453 836 499 806 l 629 821 b 399 957 581 903 497 957 b 150 718 260 957 150 850 b 218 546 150 651 174 589 b 76 293 129 490 76 399 b 389 -12 76 122 204 -12 b 625 90 485 -12 576 24 b 844 -12 663 31 739 -12 l 844 104 b 700 293 718 104 700 188 l 700 483 l 821 483 l 821 585 l 700 585 l 700 710 l 581 710 l 581 586 z m 581 483 l 581 285 b 389 108 576 185 499 108 b 197 293 274 108 197 188 b 390 483 197 392 279 483 z "},"‚":{"ha":336,"x_min":0,"x_max":0,"o":"m 113 -90 b 242 229 168 -44 229 72 l 126 229 b 39 -64 128 107 89 7 z "},"„":{"ha":543,"x_min":0,"x_max":0,"o":"m 319 -90 b 449 229 375 -44 436 72 l 333 229 b 246 -64 335 107 296 7 z m 113 -90 b 242 229 168 -44 229 72 l 126 229 b 39 -64 128 107 89 7 z "},"’":{"ha":340,"x_min":0,"x_max":0,"o":"m 143 631 b 272 950 199 676 260 793 l 157 950 b 69 657 158 828 119 728 z "},"”":{"ha":549,"x_min":0,"x_max":0,"o":"m 351 638 b 481 957 407 683 468 800 l 365 957 b 278 664 367 835 328 735 z m 144 638 b 274 957 200 683 261 800 l 158 957 b 71 664 160 835 121 735 z "},"“":{"ha":551,"x_min":0,"x_max":0,"o":"m 213 957 b 83 638 157 911 96 794 l 199 638 b 286 931 197 760 236 860 z m 419 957 b 290 638 364 911 303 794 l 406 638 b 493 931 404 760 443 860 z "},"‘":{"ha":344,"x_min":0,"x_max":0,"o":"m 213 956 b 83 636 157 910 96 793 l 199 636 b 286 929 197 758 236 858 z "},"™":{"ha":1172,"x_min":0,"x_max":0,"o":"m 92 946 l 92 864 l 253 864 l 253 414 l 347 414 l 347 864 l 494 864 l 442 414 l 533 414 l 576 786 l 721 471 l 797 471 l 939 786 l 983 414 l 1074 414 l 1010 946 l 929 946 l 758 571 l 588 946 z "},"Š":{"ha":796,"x_min":0,"x_max":0,"o":"m 72 276 b 407 -14 72 126 213 -14 b 726 236 596 -14 708 97 b 471 536 747 390 650 490 l 346 567 b 210 700 225 596 210 658 b 389 844 210 788 294 844 b 569 688 494 844 569 783 l 699 688 b 390 968 699 860 564 968 b 81 699 228 968 81 860 b 314 449 81 615 110 500 l 438 418 b 600 247 524 399 607 350 b 407 107 589 175 529 107 b 201 276 286 107 201 193 z m 400 1171 l 297 1292 l 183 1292 l 336 1078 l 465 1078 l 618 1292 l 504 1292 z "},"š":{"ha":610,"x_min":0,"x_max":0,"o":"m 342 265 b 428 183 390 254 429 232 b 329 99 426 135 389 103 b 226 121 289 96 256 103 b 174 194 194 136 178 167 l 58 194 b 300 -14 63 61 183 -14 b 551 181 435 -14 551 58 b 383 369 551 254 517 336 l 288 393 b 211 443 254 403 224 417 b 210 494 204 457 204 474 b 307 553 219 529 258 553 b 408 479 357 553 401 528 l 529 479 b 304 663 518 611 414 663 b 79 497 188 663 90 592 b 253 286 68 376 135 318 z m 304 863 l 201 983 l 88 983 l 240 769 l 369 769 l 522 983 l 408 983 z "},"⁄":{"ha":250,"x_min":0,"x_max":0,"o":"m 481 931 l 388 931 l -239 -14 l -144 -14 z "},"§":{"ha":717,"x_min":0,"x_max":0,"o":"m 210 682 b 364 833 210 775 281 833 b 513 731 429 833 485 796 l 626 764 b 364 953 583 882 481 953 b 90 682 214 953 90 849 l 90 460 b 364 190 90 294 214 190 b 442 201 388 190 414 194 l 442 325 b 364 310 415 314 390 310 b 210 460 281 310 210 367 z m 507 108 b 353 -43 507 15 436 -43 b 204 60 288 -43 232 -6 l 90 26 b 353 -162 133 -92 236 -162 b 626 108 503 -162 626 -58 l 626 331 b 353 600 626 496 503 600 b 278 589 328 600 303 596 l 278 465 b 353 481 301 475 326 481 b 507 331 436 481 507 424 z "},"{":{"ha":556,"x_min":0,"x_max":0,"o":"m 258 199 b 190 325 258 247 231 303 b 258 453 235 349 258 404 l 258 697 b 408 858 258 788 326 858 l 501 858 l 501 968 l 413 968 b 139 697 263 968 139 864 l 139 453 b 54 382 139 415 100 382 l 54 269 b 139 199 100 269 139 236 l 139 -43 b 413 -315 139 -211 263 -315 l 501 -315 l 501 -206 l 408 -206 b 258 -43 326 -206 258 -133 z "},"}":{"ha":556,"x_min":0,"x_max":0,"o":"m 297 -43 b 147 -206 297 -133 229 -206 l 54 -206 l 54 -315 l 143 -315 b 417 -43 293 -315 417 -211 l 417 199 b 501 269 417 236 456 269 l 501 382 b 417 453 456 382 417 415 l 417 697 b 143 968 417 864 293 968 l 54 968 l 54 858 l 147 858 b 297 697 229 858 297 788 l 297 453 b 365 325 297 404 321 349 b 297 199 325 303 297 247 z "},"‹":{"ha":435,"x_min":0,"x_max":0,"o":"m 64 324 l 256 36 l 365 36 l 174 324 l 365 611 l 256 611 z "},"›":{"ha":435,"x_min":0,"x_max":0,"o":"m 371 324 l 179 611 l 69 611 l 261 324 l 69 36 l 179 36 z "},"«":{"ha":679,"x_min":0,"x_max":0,"o":"m 64 324 l 256 36 l 365 36 l 174 324 l 365 611 l 256 611 z m 308 324 l 500 36 l 610 36 l 418 324 l 610 611 l 500 611 z "},"»":{"ha":679,"x_min":0,"x_max":0,"o":"m 615 324 l 424 611 l 314 611 l 506 324 l 314 36 l 424 36 z m 371 324 l 179 611 l 69 611 l 261 324 l 69 36 l 179 36 z "},"œ":{"ha":1326,"x_min":0,"x_max":0,"o":"m 1271 326 b 949 663 1271 532 1133 663 b 678 529 836 663 738 614 b 401 663 615 614 514 663 b 63 326 217 663 63 532 b 401 -14 63 121 217 -14 b 678 121 514 -14 615 36 b 949 -14 738 36 836 -14 b 1247 158 1075 -14 1192 43 b 1139 200 1213 174 1172 185 b 953 100 1101 135 1031 100 b 743 276 842 100 758 167 l 1269 276 b 1271 326 1271 292 1271 311 z m 401 108 b 188 326 283 108 188 193 b 401 539 188 457 283 539 b 615 326 517 539 615 457 b 401 108 615 193 517 108 z m 743 375 b 949 549 758 485 842 549 b 1146 375 1054 549 1131 485 z "},"?":{"ha":671,"x_min":0,"x_max":0,"o":"m 179 678 b 333 844 179 781 251 844 b 494 697 415 844 494 788 b 381 554 494 633 439 568 b 194 333 274 521 194 467 l 194 257 l 317 257 l 319 333 b 418 435 319 399 361 418 b 618 697 526 468 618 563 b 333 968 618 864 483 968 b 60 678 183 968 60 856 z m 165 74 b 257 -12 165 24 207 -12 b 347 74 307 -12 347 24 b 257 161 347 124 307 161 b 165 74 207 161 165 124 z "},"¿":{"ha":656,"x_min":0,"x_max":0,"o":"m 485 -33 b 331 -200 485 -136 413 -200 b 169 -53 249 -200 169 -143 b 283 90 169 14 225 72 b 469 311 390 124 469 178 l 469 393 l 347 393 l 344 311 b 246 210 344 246 303 226 b 46 -53 138 176 46 82 b 331 -324 46 -219 181 -324 b 604 -33 481 -324 604 -211 z m 499 576 b 407 663 499 626 457 663 b 317 576 357 663 317 626 b 407 489 317 526 357 489 b 499 576 457 489 499 526 z "},"£":{"ha":878,"x_min":0,"x_max":0,"o":"m 194 483 l 89 483 l 89 399 l 194 399 l 194 125 l 67 125 l 67 0 l 672 0 b 806 167 763 0 806 74 l 806 235 l 681 235 l 681 156 b 657 125 681 135 672 125 l 318 125 l 318 399 l 531 399 l 531 483 l 318 483 l 318 697 b 465 840 318 782 392 836 b 528 835 486 844 507 840 b 628 678 585 818 628 761 l 753 678 b 479 968 753 856 629 968 b 194 697 331 968 194 864 z "},"ð":{"ha":803,"x_min":0,"x_max":0,"o":"m 383 889 l 328 957 l 182 957 l 286 825 l 175 756 l 219 690 l 338 764 l 440 649 b 390 663 425 658 400 663 b 63 326 218 663 63 532 b 401 -14 63 122 217 -14 b 739 326 585 -14 739 122 b 675 529 739 406 715 474 l 438 828 l 524 886 l 474 944 z m 401 106 b 182 326 282 106 182 193 b 401 543 182 460 282 543 b 621 326 519 543 621 460 b 401 106 621 193 519 106 z "},"*":{"ha":649,"x_min":0,"x_max":0,"o":"m 219 486 l 328 643 l 429 489 l 515 549 l 394 699 l 575 747 l 543 849 b 367 781 489 828 417 799 l 379 968 l 269 968 l 281 781 l 107 849 b 90 800 101 832 94 815 l 72 747 l 254 696 l 136 550 z "},"(":{"ha":504,"x_min":0,"x_max":0,"o":"m 68 322 b 449 -324 68 -78 219 -324 l 449 -200 b 186 322 289 -200 186 1 b 449 844 186 643 289 844 l 449 968 b 68 322 219 968 68 722 z "},")":{"ha":504,"x_min":0,"x_max":0,"o":"m 436 322 b 56 968 436 722 285 968 l 56 844 b 318 322 214 844 318 643 b 56 -200 318 1 214 -200 l 56 -324 b 436 322 285 -324 436 -78 z "},"æ":{"ha":1329,"x_min":0,"x_max":0,"o":"m 744 649 l 619 649 l 619 551 b 392 663 575 625 482 663 b 63 325 214 663 63 532 b 392 -14 63 119 214 -14 b 619 100 482 -14 576 28 l 619 0 l 744 0 l 744 54 b 951 -14 801 8 869 -14 b 1250 158 1078 -14 1194 43 b 1142 200 1215 174 1175 185 b 956 100 1104 135 1033 100 b 746 276 844 100 761 167 l 1272 276 b 1274 326 1274 292 1274 311 b 951 663 1274 532 1136 663 b 744 596 871 663 801 640 z m 618 326 b 403 110 618 189 518 110 b 192 326 286 110 192 199 b 403 539 192 454 286 539 b 618 326 508 539 618 465 z m 746 375 b 951 549 761 485 844 549 b 1149 375 1057 549 1133 485 z "},"¯":{"ha":683,"x_min":0,"x_max":0,"o":"m 167 917 l 167 806 l 517 806 l 517 917 z "},"Ā":{"ha":896,"x_min":0,"x_max":0,"o":"m 290 360 l 449 785 l 607 360 z m 651 243 l 744 0 l 881 0 l 518 957 l 379 957 l 15 0 l 153 0 l 246 243 z m 272 1225 l 272 1114 l 622 1114 l 622 1225 z "},"ā":{"ha":850,"x_min":0,"x_max":0,"o":"m 619 0 l 744 0 l 744 649 l 619 649 l 619 551 b 392 663 575 625 482 663 b 63 325 214 663 63 532 b 392 -14 63 119 214 -14 b 619 100 482 -14 576 28 z m 618 326 b 403 110 618 189 518 110 b 192 326 286 110 192 199 b 403 539 192 454 286 539 b 618 326 508 539 618 465 z m 249 917 l 249 806 l 599 806 l 599 917 z "},"Ă":{"ha":896,"x_min":0,"x_max":0,"o":"m 290 360 l 449 785 l 607 360 z m 651 243 l 744 0 l 881 0 l 518 957 l 379 957 l 15 0 l 153 0 l 246 243 z m 267 1257 b 447 1079 267 1164 319 1079 b 629 1257 558 1079 629 1146 l 524 1257 b 447 1175 524 1218 496 1175 b 369 1257 399 1175 369 1208 z "},"ă":{"ha":850,"x_min":0,"x_max":0,"o":"m 619 0 l 744 0 l 744 649 l 619 649 l 619 551 b 392 663 575 625 482 663 b 63 325 214 663 63 532 b 392 -14 63 119 214 -14 b 619 100 482 -14 576 28 z m 618 326 b 403 110 618 189 518 110 b 192 326 286 110 192 199 b 403 539 192 454 286 539 b 618 326 508 539 618 465 z m 243 949 b 424 771 243 856 296 771 b 606 949 535 771 606 838 l 500 949 b 424 867 500 910 472 867 b 346 949 375 867 346 900 z "},"Ć":{"ha":949,"x_min":0,"x_max":0,"o":"m 818 233 b 553 111 753 157 660 111 b 197 476 351 111 197 272 b 553 843 197 681 351 843 b 815 725 658 843 750 796 l 913 806 b 553 968 828 906 701 968 b 68 476 282 968 68 747 b 553 -14 68 204 282 -14 b 915 151 703 -14 831 50 z m 743 1292 l 592 1292 l 457 1078 l 578 1078 z "},"ć":{"ha":711,"x_min":0,"x_max":0,"o":"m 63 326 b 406 -14 63 121 221 -14 b 657 92 506 -14 596 25 l 560 172 b 406 108 521 132 465 108 b 188 326 289 108 188 197 b 406 539 188 457 289 539 b 560 478 465 539 521 517 l 656 558 b 406 663 594 625 506 663 b 63 326 221 663 63 532 z m 583 983 l 432 983 l 297 769 l 418 769 z "},"Ĉ":{"ha":949,"x_min":0,"x_max":0,"o":"m 818 233 b 553 111 753 157 660 111 b 197 476 351 111 197 272 b 553 843 197 681 351 843 b 815 725 658 843 750 796 l 913 806 b 553 968 828 906 701 968 b 68 476 282 968 68 747 b 553 -14 68 204 282 -14 b 915 151 703 -14 831 50 z m 654 1078 l 768 1078 l 615 1292 l 486 1292 l 333 1078 l 447 1078 l 550 1199 z "},"ĉ":{"ha":711,"x_min":0,"x_max":0,"o":"m 63 326 b 406 -14 63 121 221 -14 b 657 92 506 -14 596 25 l 560 172 b 406 108 521 132 465 108 b 188 326 289 108 188 197 b 406 539 188 457 289 539 b 560 478 465 539 521 517 l 656 558 b 406 663 594 625 506 663 b 63 326 221 663 63 532 z m 504 769 l 618 769 l 465 983 l 336 983 l 183 769 l 297 769 l 400 890 z "},"Ċ":{"ha":949,"x_min":0,"x_max":0,"o":"m 818 233 b 553 111 753 157 660 111 b 197 476 351 111 197 272 b 553 843 197 681 351 843 b 815 725 658 843 750 796 l 913 806 b 553 968 828 906 701 968 b 68 476 282 968 68 747 b 553 -14 68 204 282 -14 b 915 151 703 -14 831 50 z m 442 1196 b 529 1114 442 1147 481 1114 b 617 1196 578 1114 617 1147 b 529 1278 617 1244 578 1278 b 442 1196 481 1278 442 1244 z "},"ċ":{"ha":711,"x_min":0,"x_max":0,"o":"m 63 326 b 406 -14 63 121 221 -14 b 657 92 506 -14 596 25 l 560 172 b 406 108 521 132 465 108 b 188 326 289 108 188 197 b 406 539 188 457 289 539 b 560 478 465 539 521 517 l 656 558 b 406 663 594 625 506 663 b 63 326 221 663 63 532 z m 313 888 b 400 806 313 839 351 806 b 488 888 449 806 488 839 b 400 969 488 936 449 969 b 313 888 351 969 313 936 z "},"Č":{"ha":949,"x_min":0,"x_max":0,"o":"m 818 233 b 553 111 753 157 660 111 b 197 476 351 111 197 272 b 553 843 197 681 351 843 b 815 725 658 843 750 796 l 913 806 b 553 968 828 906 701 968 b 68 476 282 968 68 747 b 553 -14 68 204 282 -14 b 915 151 703 -14 831 50 z m 531 1171 l 428 1292 l 314 1292 l 467 1078 l 596 1078 l 749 1292 l 635 1292 z "},"č":{"ha":711,"x_min":0,"x_max":0,"o":"m 63 326 b 406 -14 63 121 221 -14 b 657 92 506 -14 596 25 l 560 172 b 406 108 521 132 465 108 b 188 326 289 108 188 197 b 406 539 188 457 289 539 b 560 478 465 539 521 517 l 656 558 b 406 663 594 625 506 663 b 63 326 221 663 63 532 z m 388 863 l 285 983 l 171 983 l 324 769 l 453 769 l 606 983 l 492 983 z "},"Ď":{"ha":1006,"x_min":0,"x_max":0,"o":"m 501 0 b 932 476 774 0 932 204 b 501 957 932 749 774 957 l 131 957 l 131 0 z m 260 121 l 260 836 l 501 836 b 803 476 700 836 803 678 b 501 121 803 275 700 121 z m 519 1171 l 417 1292 l 303 1292 l 456 1078 l 585 1078 l 738 1292 l 624 1292 z "},"Ą":{"ha":896,"x_min":0,"x_max":0,"o":"m 290 360 l 449 785 l 607 360 z m 743 1 l 697 -86 b 686 -144 688 -107 686 -126 b 774 -272 686 -199 718 -249 b 828 -283 790 -279 808 -283 b 953 -194 882 -283 929 -250 b 967 -126 963 -174 967 -150 l 878 -132 l 878 -143 b 874 -162 878 -150 876 -157 b 804 -194 861 -190 832 -204 b 776 -121 776 -182 765 -150 l 819 0 l 881 0 l 518 957 l 379 957 l 15 0 l 153 0 l 246 243 l 651 243 z "},"ą":{"ha":850,"x_min":0,"x_max":0,"o":"m 749 -162 b 679 -194 736 -190 707 -204 b 651 -121 651 -182 640 -150 l 694 0 l 744 0 l 744 649 l 619 649 l 619 551 b 392 663 575 625 482 663 b 63 325 214 663 63 532 b 392 -14 63 119 214 -14 b 619 100 482 -14 576 28 l 619 1 l 572 -86 b 561 -144 563 -107 561 -126 b 649 -272 561 -199 593 -249 b 703 -283 665 -279 683 -283 b 828 -194 757 -283 804 -250 b 842 -126 838 -174 842 -150 l 753 -132 l 753 -143 b 749 -162 753 -150 751 -157 z m 618 326 b 403 110 618 189 518 110 b 192 326 286 110 192 199 b 403 539 192 454 286 539 b 618 326 508 539 618 465 z "},"Ē":{"ha":785,"x_min":0,"x_max":0,"o":"m 131 957 l 131 0 l 711 0 l 711 121 l 260 121 l 260 410 l 642 410 l 642 531 l 260 531 l 260 836 l 697 836 l 697 957 z m 243 1225 l 243 1114 l 593 1114 l 593 1225 z "},"ē":{"ha":772,"x_min":0,"x_max":0,"o":"m 189 375 b 394 549 204 485 288 549 b 592 375 500 549 576 485 z m 717 326 b 394 663 717 532 579 663 b 63 326 210 663 63 532 b 394 -14 63 121 210 -14 b 693 158 521 -14 638 43 b 585 200 658 174 618 185 b 399 100 547 135 476 100 b 189 276 288 100 204 167 l 715 276 b 717 326 717 292 717 311 z m 214 917 l 214 806 l 564 806 l 564 917 z "},"Ĕ":{"ha":785,"x_min":0,"x_max":0,"o":"m 131 957 l 131 0 l 711 0 l 711 121 l 260 121 l 260 410 l 642 410 l 642 531 l 260 531 l 260 836 l 697 836 l 697 957 z m 211 1257 b 392 1079 211 1164 264 1079 b 574 1257 503 1079 574 1146 l 468 1257 b 392 1175 468 1218 440 1175 b 314 1257 343 1175 314 1208 z "},"ĕ":{"ha":772,"x_min":0,"x_max":0,"o":"m 189 375 b 394 549 204 485 288 549 b 592 375 500 549 576 485 z m 717 326 b 394 663 717 532 579 663 b 63 326 210 663 63 532 b 394 -14 63 121 210 -14 b 693 158 521 -14 638 43 b 585 200 658 174 618 185 b 399 100 547 135 476 100 b 189 276 288 100 204 167 l 715 276 b 717 326 717 292 717 311 z m 208 949 b 389 771 208 856 261 771 b 571 949 500 771 571 838 l 465 949 b 389 867 465 910 438 867 b 311 949 340 867 311 900 z "},"Ė":{"ha":785,"x_min":0,"x_max":0,"o":"m 131 957 l 131 0 l 711 0 l 711 121 l 260 121 l 260 410 l 642 410 l 642 531 l 260 531 l 260 836 l 697 836 l 697 957 z m 336 1196 b 424 1114 336 1147 375 1114 b 511 1196 472 1114 511 1147 b 424 1278 511 1244 472 1278 b 336 1196 375 1278 336 1244 z "},"ė":{"ha":772,"x_min":0,"x_max":0,"o":"m 189 375 b 394 549 204 485 288 549 b 592 375 500 549 576 485 z m 717 326 b 394 663 717 532 579 663 b 63 326 210 663 63 532 b 394 -14 63 121 210 -14 b 693 158 521 -14 638 43 b 585 200 658 174 618 185 b 399 100 547 135 476 100 b 189 276 288 100 204 167 l 715 276 b 717 326 717 292 717 311 z m 308 888 b 396 806 308 839 347 806 b 483 888 444 806 483 839 b 396 969 483 936 444 969 b 308 888 347 969 308 936 z "},"Ě":{"ha":785,"x_min":0,"x_max":0,"o":"m 131 957 l 131 0 l 711 0 l 711 121 l 260 121 l 260 410 l 642 410 l 642 531 l 260 531 l 260 836 l 697 836 l 697 957 z m 392 1171 l 289 1292 l 175 1292 l 328 1078 l 457 1078 l 610 1292 l 496 1292 z "},"ě":{"ha":772,"x_min":0,"x_max":0,"o":"m 189 375 b 394 549 204 485 288 549 b 592 375 500 549 576 485 z m 717 326 b 394 663 717 532 579 663 b 63 326 210 663 63 532 b 394 -14 63 121 210 -14 b 693 158 521 -14 638 43 b 585 200 658 174 618 185 b 399 100 547 135 476 100 b 189 276 288 100 204 167 l 715 276 b 717 326 717 292 717 311 z m 389 863 l 286 983 l 172 983 l 325 769 l 454 769 l 607 983 l 493 983 z "},"Ĝ":{"ha":1050,"x_min":0,"x_max":0,"o":"m 875 842 b 551 968 792 919 679 968 b 68 476 279 968 68 747 b 551 -14 68 204 279 -14 b 1004 481 825 -14 1004 143 l 585 481 l 585 368 l 857 368 b 551 110 850 208 722 110 b 197 476 351 110 197 272 b 551 844 197 679 351 844 b 782 756 640 844 721 810 z m 633 1078 l 747 1078 l 594 1292 l 465 1292 l 313 1078 l 426 1078 l 529 1199 z "},"ĝ":{"ha":849,"x_min":0,"x_max":0,"o":"m 203 -93 b 97 -149 186 -100 113 -140 b 390 -324 160 -264 269 -324 b 744 99 606 -324 744 -207 l 744 649 l 619 649 l 619 547 b 392 663 575 621 482 663 b 63 322 214 663 63 528 b 392 -14 63 117 214 -14 b 619 106 483 -14 579 28 b 621 90 619 100 621 96 b 390 -204 621 -125 531 -204 b 203 -93 318 -204 242 -165 z m 618 324 b 403 110 618 185 508 110 b 192 324 286 110 192 190 b 403 539 192 450 286 539 b 618 324 518 539 618 463 z m 528 769 l 642 769 l 489 983 l 360 983 l 207 769 l 321 769 l 424 890 z "},"Ğ":{"ha":1050,"x_min":0,"x_max":0,"o":"m 875 842 b 551 968 792 919 679 968 b 68 476 279 968 68 747 b 551 -14 68 204 279 -14 b 1004 481 825 -14 1004 143 l 585 481 l 585 368 l 857 368 b 551 110 850 208 722 110 b 197 476 351 110 197 272 b 551 844 197 679 351 844 b 782 756 640 844 721 810 z m 349 1257 b 529 1079 349 1164 401 1079 b 711 1257 640 1079 711 1146 l 606 1257 b 529 1175 606 1218 578 1175 b 451 1257 481 1175 451 1208 z "},"ğ":{"ha":849,"x_min":0,"x_max":0,"o":"m 203 -93 b 97 -149 186 -100 113 -140 b 390 -324 160 -264 269 -324 b 744 99 606 -324 744 -207 l 744 649 l 619 649 l 619 547 b 392 663 575 621 482 663 b 63 322 214 663 63 528 b 392 -14 63 117 214 -14 b 619 106 483 -14 579 28 b 621 90 619 100 621 96 b 390 -204 621 -125 531 -204 b 203 -93 318 -204 242 -165 z m 618 324 b 403 110 618 185 508 110 b 192 324 286 110 192 190 b 403 539 192 450 286 539 b 618 324 518 539 618 463 z m 243 949 b 424 771 243 856 296 771 b 606 949 535 771 606 838 l 500 949 b 424 867 500 910 472 867 b 346 949 375 867 346 900 z "},"Ę":{"ha":785,"x_min":0,"x_max":0,"o":"m 704 0 l 711 0 l 711 121 l 260 121 l 260 410 l 642 410 l 642 531 l 260 531 l 260 836 l 697 836 l 697 957 l 131 957 l 131 0 l 625 0 l 588 -71 b 576 -129 578 -92 576 -111 b 664 -257 576 -183 608 -233 b 718 -268 681 -264 699 -268 b 843 -179 772 -268 819 -235 b 857 -111 853 -158 857 -135 l 768 -117 l 768 -128 b 764 -147 768 -135 767 -142 b 694 -179 751 -175 722 -189 b 667 -106 667 -167 656 -135 z "},"ę":{"ha":774,"x_min":0,"x_max":0,"o":"m 526 -121 b 693 158 582 63 667 107 l 585 200 b 399 100 547 135 476 100 b 189 276 288 100 204 167 l 715 276 b 717 326 717 292 717 311 b 394 663 717 532 579 663 b 63 326 210 663 63 532 b 394 -14 63 121 210 -14 b 493 -1 428 -14 461 -10 l 447 -86 b 436 -144 438 -107 436 -126 b 524 -272 436 -199 468 -249 b 578 -283 540 -279 558 -283 b 703 -194 632 -283 679 -250 b 717 -126 713 -174 717 -150 l 628 -132 l 628 -143 b 624 -162 628 -150 626 -157 b 554 -194 611 -190 582 -204 b 526 -121 526 -182 517 -150 z m 189 375 b 394 549 204 485 288 549 b 592 375 500 549 576 485 z "},"ď":{"ha":836,"x_min":0,"x_max":0,"o":"m 731 979 l 606 979 l 606 569 b 394 661 557 632 474 661 b 63 326 210 661 63 532 b 394 -12 63 121 210 -12 b 608 85 474 -12 560 19 l 608 0 l 731 0 z m 188 326 b 394 536 188 454 278 536 b 606 326 494 536 606 465 b 394 113 606 188 506 113 b 188 326 278 113 188 201 z m 869 689 b 978 957 928 735 978 814 l 853 957 b 789 715 864 840 842 786 z "},"Đ":{"ha":1006,"x_min":0,"x_max":0,"o":"m 504 0 b 931 476 776 0 931 204 b 504 957 931 749 776 957 l 139 957 l 139 526 l 10 526 l 10 432 l 139 432 l 139 0 z m 268 526 l 268 829 l 504 829 b 801 476 700 829 801 676 b 504 128 801 276 700 128 l 268 128 l 268 432 l 497 432 l 497 526 z "},"đ":{"ha":850,"x_min":0,"x_max":0,"o":"m 744 776 l 849 776 l 849 863 l 744 863 l 744 1001 l 618 1001 l 618 863 l 410 863 l 410 776 l 618 776 l 618 551 b 389 663 575 625 485 663 b 63 325 211 663 63 532 b 390 -14 63 119 213 -14 b 618 100 481 -14 575 28 l 618 0 l 744 0 l 744 775 z m 617 326 b 401 110 617 189 517 110 b 192 326 285 110 192 199 b 401 539 192 454 285 539 b 617 326 507 539 617 465 z "},"Ġ":{"ha":1050,"x_min":0,"x_max":0,"o":"m 875 842 b 551 968 792 919 679 968 b 68 476 279 968 68 747 b 551 -14 68 204 279 -14 b 1004 481 825 -14 1004 143 l 585 481 l 585 368 l 857 368 b 551 110 850 208 722 110 b 197 476 351 110 197 272 b 551 844 197 679 351 844 b 782 756 640 844 721 810 z m 460 1196 b 547 1114 460 1147 499 1114 b 635 1196 596 1114 635 1147 b 547 1278 635 1244 596 1278 b 460 1196 499 1278 460 1244 z "},"ġ":{"ha":849,"x_min":0,"x_max":0,"o":"m 203 -93 b 97 -149 186 -100 113 -140 b 390 -324 160 -264 269 -324 b 744 99 606 -324 744 -207 l 744 649 l 619 649 l 619 547 b 392 663 575 621 482 663 b 63 322 214 663 63 528 b 392 -14 63 117 214 -14 b 619 106 483 -14 579 28 b 621 90 619 100 621 96 b 390 -204 621 -125 531 -204 b 203 -93 318 -204 242 -165 z m 618 324 b 403 110 618 185 508 110 b 192 324 286 110 192 190 b 403 539 192 450 286 539 b 618 324 518 539 618 463 z m 336 888 b 424 806 336 839 375 806 b 511 888 472 806 511 839 b 424 969 511 936 472 969 b 336 888 375 969 336 936 z "},"Ĥ":{"ha":983,"x_min":0,"x_max":0,"o":"m 853 957 l 722 957 l 722 535 l 260 535 l 260 957 l 131 957 l 131 0 l 260 0 l 260 417 l 722 417 l 722 0 l 853 0 z m 594 1078 l 708 1078 l 556 1292 l 426 1292 l 274 1078 l 388 1078 l 490 1199 z "},"ĥ":{"ha":806,"x_min":0,"x_max":0,"o":"m 232 350 b 429 539 232 489 340 539 b 582 367 518 539 582 474 l 582 0 l 708 0 l 708 375 b 446 663 710 558 608 663 b 232 551 376 663 269 629 l 232 1001 l 106 1001 l 106 0 l 232 0 z m 274 1063 l 388 1063 l 235 1276 l 106 1276 l -47 1063 l 67 1063 l 169 1183 z "},"Ħ":{"ha":994,"x_min":0,"x_max":0,"o":"m 857 783 l 857 957 l 728 957 l 728 783 l 267 783 l 267 957 l 138 957 l 138 783 l 42 783 l 42 697 l 138 697 l 138 0 l 267 0 l 267 414 l 728 414 l 728 0 l 857 0 l 857 697 l 954 697 l 954 783 z m 267 536 l 267 697 l 728 697 l 728 536 z "},"ħ":{"ha":806,"x_min":0,"x_max":0,"o":"m 232 776 l 413 776 l 413 863 l 232 863 l 232 1001 l 106 1001 l 106 863 l 8 863 l 8 776 l 106 776 l 106 0 l 232 0 l 232 350 b 429 539 232 489 340 539 b 582 367 518 539 582 474 l 582 0 l 708 0 l 708 375 b 446 663 710 558 608 663 b 232 551 376 663 269 629 z "},"Ĩ":{"ha":390,"x_min":0,"x_max":0,"o":"m 131 957 l 131 0 l 260 0 l 260 957 z m 133 1156 b 178 1133 149 1156 161 1144 b 257 1099 199 1118 219 1099 b 381 1257 310 1099 374 1135 l 296 1257 b 257 1200 294 1213 272 1200 b 214 1224 242 1200 229 1211 b 133 1257 193 1239 172 1257 b 11 1094 79 1257 18 1217 l 96 1094 b 133 1156 97 1140 118 1156 z "},"ĩ":{"ha":335,"x_min":0,"x_max":0,"o":"m 229 649 l 106 649 l 106 0 l 229 0 z m 111 847 b 156 825 126 847 139 836 b 235 790 176 810 197 790 b 358 949 288 790 351 826 l 274 949 b 235 892 272 904 250 892 b 192 915 219 892 207 903 b 111 949 171 931 150 949 b -11 786 57 949 -4 908 l 74 786 b 111 847 75 832 96 847 z "},"Ī":{"ha":390,"x_min":0,"x_max":0,"o":"m 131 957 l 131 0 l 260 0 l 260 957 z m 21 1225 l 21 1114 l 371 1114 l 371 1225 z "},"ī":{"ha":335,"x_min":0,"x_max":0,"o":"m 229 649 l 106 649 l 106 0 l 229 0 z m -1 917 l -1 806 l 349 806 l 349 917 z "},"Į":{"ha":390,"x_min":0,"x_max":0,"o":"m 206 0 l 260 0 l 260 957 l 131 957 l 131 1 l 83 -86 b 72 -144 74 -107 72 -126 b 160 -272 72 -199 104 -249 b 214 -283 176 -279 194 -283 b 339 -194 268 -283 315 -250 b 353 -126 349 -174 353 -150 l 264 -132 l 264 -143 b 260 -162 264 -150 263 -157 b 190 -194 247 -190 218 -204 b 163 -121 163 -182 151 -150 z "},"į":{"ha":336,"x_min":0,"x_max":0,"o":"m 182 0 l 231 0 l 231 649 l 106 649 l 106 0 l 60 -86 b 49 -144 50 -107 49 -126 b 136 -272 49 -199 81 -249 b 190 -283 153 -279 171 -283 b 315 -194 244 -283 292 -250 b 329 -126 325 -174 329 -150 l 240 -132 l 240 -143 b 236 -162 240 -150 239 -157 b 167 -194 224 -190 194 -204 b 139 -121 139 -182 128 -150 z m 101 888 b 189 806 101 839 140 806 b 276 888 238 806 276 839 b 189 969 276 936 238 969 b 101 888 140 969 101 936 z "},"İ":{"ha":390,"x_min":0,"x_max":0,"o":"m 131 957 l 131 0 l 260 0 l 260 957 z m 108 1196 b 196 1114 108 1147 147 1114 b 283 1196 244 1114 283 1147 b 196 1278 283 1244 244 1278 b 108 1196 147 1278 108 1244 z "},"Ĳ":{"ha":781,"x_min":0,"x_max":0,"o":"m 131 957 l 131 0 l 260 0 l 260 957 z m 251 -333 b 356 -349 285 -340 329 -349 b 650 -37 571 -349 650 -206 l 650 957 l 521 957 l 521 -37 b 356 -222 521 -137 476 -222 b 264 -211 344 -222 285 -218 z "},"ĳ":{"ha":675,"x_min":0,"x_max":0,"o":"m 231 649 l 106 649 l 106 0 l 231 0 z m 81 888 b 168 806 81 839 119 806 b 256 888 217 806 256 839 b 168 969 256 936 217 969 b 81 888 119 969 81 936 z m 250 -318 l 336 -318 b 569 -40 511 -318 569 -201 l 569 649 l 442 649 l 442 -39 b 325 -200 442 -112 432 -200 l 250 -200 z m 418 888 b 506 806 418 839 457 806 b 593 888 554 806 593 839 b 506 969 593 936 554 969 b 418 888 457 969 418 936 z "},"Ĵ":{"ha":390,"x_min":0,"x_max":0,"o":"m -139 -333 b -35 -349 -106 -340 -61 -349 b 260 -37 181 -349 260 -206 l 260 957 l 131 957 l 131 -37 b -35 -222 131 -137 86 -222 b -126 -211 -46 -222 -106 -218 z m 289 1078 l 403 1078 l 250 1292 l 121 1292 l -32 1078 l 82 1078 l 185 1199 z "},"ĵ":{"ha":339,"x_min":0,"x_max":0,"o":"m -86 -318 l 0 -318 b 233 -40 175 -318 233 -201 l 233 649 l 106 649 l 106 -39 b -11 -200 106 -112 96 -200 l -86 -200 z m 279 769 l 393 769 l 240 983 l 111 983 l -42 769 l 72 769 l 175 890 z "},"ĸ":{"ha":686,"x_min":0,"x_max":0,"o":"m 231 260 l 497 0 l 672 0 l 342 328 l 643 649 l 478 649 l 231 389 l 231 649 l 106 649 l 106 0 l 231 0 z "},"Ĺ":{"ha":688,"x_min":0,"x_max":0,"o":"m 131 957 l 131 0 l 650 0 l 650 121 l 260 121 l 260 957 z m 425 1276 l 274 1276 l 139 1063 l 260 1063 z "},"ĺ":{"ha":338,"x_min":0,"x_max":0,"o":"m 106 1001 l 106 0 l 232 0 l 232 1001 z m 393 1293 l 242 1293 l 107 1079 l 228 1079 z "},"Ľ":{"ha":688,"x_min":0,"x_max":0,"o":"m 131 957 l 131 0 l 650 0 l 650 121 l 260 121 l 260 957 z m 432 689 b 540 957 490 735 540 814 l 415 957 b 351 715 426 840 404 786 z "},"ľ":{"ha":338,"x_min":0,"x_max":0,"o":"m 106 1001 l 106 0 l 232 0 l 232 1001 z m 371 733 b 479 1001 429 779 479 858 l 354 1001 b 290 760 365 885 343 831 z "},"Ŀ":{"ha":688,"x_min":0,"x_max":0,"o":"m 131 957 l 131 0 l 650 0 l 650 121 l 260 121 l 260 957 z m 369 363 b 460 276 369 313 411 276 b 551 363 510 276 551 313 b 460 450 551 413 510 450 b 369 363 411 450 369 413 z "},"ŀ":{"ha":468,"x_min":0,"x_max":0,"o":"m 106 1001 l 106 0 l 232 0 l 232 1001 z m 310 363 b 400 276 310 313 351 276 b 492 363 450 276 492 313 b 400 450 492 413 450 450 b 310 363 351 450 310 413 z "},"Ń":{"ha":950,"x_min":0,"x_max":0,"o":"m 819 0 l 819 957 l 690 957 l 690 242 l 258 957 l 131 957 l 131 0 l 260 0 l 260 721 l 696 0 z m 660 1292 l 508 1292 l 374 1078 l 494 1078 z "},"ń":{"ha":782,"x_min":0,"x_max":0,"o":"m 232 350 b 415 539 232 488 324 539 b 558 367 504 539 558 476 l 558 0 l 685 0 l 685 375 b 435 663 685 558 597 663 b 232 551 364 663 269 629 l 232 649 l 106 649 l 106 0 l 232 0 z m 588 983 l 436 983 l 301 769 l 422 769 z "},"Ň":{"ha":950,"x_min":0,"x_max":0,"o":"m 819 0 l 819 957 l 690 957 l 690 242 l 258 957 l 131 957 l 131 0 l 260 0 l 260 721 l 696 0 z m 474 1171 l 371 1292 l 257 1292 l 410 1078 l 539 1078 l 692 1292 l 578 1292 z "},"ň":{"ha":782,"x_min":0,"x_max":0,"o":"m 232 350 b 415 539 232 488 324 539 b 558 367 504 539 558 476 l 558 0 l 685 0 l 685 375 b 435 663 685 558 597 663 b 232 551 364 663 269 629 l 232 649 l 106 649 l 106 0 l 232 0 z m 390 863 l 288 983 l 174 983 l 326 769 l 456 769 l 608 983 l 494 983 z "},"ŉ":{"ha":782,"x_min":0,"x_max":0,"o":"m 13 651 b 121 918 68 696 121 774 l -11 918 b -6 836 -6 883 -4 857 b -78 678 -10 782 -37 733 z m 232 350 b 415 539 232 488 324 539 b 558 367 504 539 558 476 l 558 0 l 685 0 l 685 375 b 435 663 685 558 597 663 b 232 551 364 663 269 629 l 232 649 l 106 649 l 106 0 l 232 0 z "},"Ō":{"ha":1106,"x_min":0,"x_max":0,"o":"m 68 476 b 551 -14 68 204 279 -14 b 1038 476 825 -14 1038 204 b 551 968 1038 747 825 968 b 68 476 279 968 68 747 z m 197 476 b 551 843 197 681 351 843 b 907 476 753 843 907 681 b 551 111 907 272 753 111 b 197 476 351 111 197 272 z m 378 1225 l 378 1114 l 728 1114 l 728 1225 z "},"ō":{"ha":804,"x_min":0,"x_max":0,"o":"m 401 -14 b 742 326 586 -14 742 121 b 401 663 742 532 586 663 b 63 326 217 663 63 532 b 401 -14 63 121 217 -14 z m 401 108 b 188 326 283 108 188 193 b 401 539 188 457 283 539 b 615 326 517 539 615 457 b 401 108 615 193 517 108 z m 214 917 l 214 806 l 564 806 l 564 917 z "},"Ŏ":{"ha":1106,"x_min":0,"x_max":0,"o":"m 68 476 b 551 -14 68 204 279 -14 b 1038 476 825 -14 1038 204 b 551 968 1038 747 825 968 b 68 476 279 968 68 747 z m 197 476 b 551 843 197 681 351 843 b 907 476 753 843 907 681 b 551 111 907 272 753 111 b 197 476 351 111 197 272 z m 371 1257 b 551 1079 371 1164 424 1079 b 733 1257 663 1079 733 1146 l 628 1257 b 551 1175 628 1218 600 1175 b 474 1257 503 1175 474 1208 z "},"ŏ":{"ha":804,"x_min":0,"x_max":0,"o":"m 401 -14 b 742 326 586 -14 742 121 b 401 663 742 532 586 663 b 63 326 217 663 63 532 b 401 -14 63 121 217 -14 z m 401 108 b 188 326 283 108 188 193 b 401 539 188 457 283 539 b 615 326 517 539 615 457 b 401 108 615 193 517 108 z m 221 949 b 401 771 221 856 274 771 b 583 949 513 771 583 838 l 478 949 b 401 867 478 910 450 867 b 324 949 353 867 324 900 z "},"Ő":{"ha":1106,"x_min":0,"x_max":0,"o":"m 68 476 b 551 -14 68 204 279 -14 b 1038 476 825 -14 1038 204 b 551 968 1038 747 825 968 b 68 476 279 968 68 747 z m 197 476 b 551 843 197 681 351 843 b 907 476 753 843 907 681 b 551 111 907 272 753 111 b 197 476 351 111 197 272 z m 629 1292 l 501 1292 l 390 1078 l 506 1078 z m 829 1292 l 699 1292 l 575 1078 l 688 1078 z "},"ő":{"ha":804,"x_min":0,"x_max":0,"o":"m 401 -14 b 742 326 586 -14 742 121 b 401 663 742 532 586 663 b 63 326 217 663 63 532 b 401 -14 63 121 217 -14 z m 401 108 b 188 326 283 108 188 193 b 401 539 188 457 283 539 b 615 326 517 539 615 457 b 401 108 615 193 517 108 z m 457 983 l 329 983 l 218 769 l 333 769 z m 657 983 l 526 983 l 403 769 l 515 769 z "},"Ŕ":{"ha":860,"x_min":0,"x_max":0,"o":"m 532 363 b 782 657 711 378 782 515 b 499 957 782 807 700 957 l 131 957 l 131 0 l 261 0 l 261 358 l 383 358 l 631 0 l 788 0 z m 494 836 b 649 657 606 836 649 744 b 489 479 649 568 606 479 l 261 479 l 261 836 z m 571 1292 l 419 1292 l 285 1078 l 406 1078 z "},"ŕ":{"ha":549,"x_min":0,"x_max":0,"o":"m 232 236 b 410 542 232 408 285 542 b 506 519 436 542 471 536 l 525 638 b 413 663 507 650 458 663 b 232 503 328 663 265 618 l 232 649 l 106 649 l 106 0 l 232 0 z m 393 983 l 242 983 l 107 769 l 228 769 z "},"Ř":{"ha":860,"x_min":0,"x_max":0,"o":"m 532 363 b 782 657 711 378 782 515 b 499 957 782 807 700 957 l 131 957 l 131 0 l 261 0 l 261 358 l 383 358 l 631 0 l 788 0 z m 494 836 b 649 657 606 836 649 744 b 489 479 649 568 606 479 l 261 479 l 261 836 z m 428 1171 l 325 1292 l 211 1292 l 364 1078 l 493 1078 l 646 1292 l 532 1292 z "},"ř":{"ha":549,"x_min":0,"x_max":0,"o":"m 232 236 b 410 542 232 408 285 542 b 506 519 436 542 471 536 l 525 638 b 413 663 507 650 458 663 b 232 503 328 663 265 618 l 232 649 l 106 649 l 106 0 l 232 0 z m 285 863 l 182 983 l 68 983 l 221 769 l 350 769 l 503 983 l 389 983 z "},"Ś":{"ha":796,"x_min":0,"x_max":0,"o":"m 72 276 b 407 -14 72 126 213 -14 b 726 236 596 -14 708 97 b 471 536 747 390 650 490 l 346 567 b 210 700 225 596 210 658 b 389 844 210 788 294 844 b 569 688 494 844 569 783 l 699 688 b 390 968 699 860 564 968 b 81 699 228 968 81 860 b 314 449 81 615 110 500 l 438 418 b 600 247 524 399 607 350 b 407 107 589 175 529 107 b 201 276 286 107 201 193 z m 578 1292 l 426 1292 l 292 1078 l 413 1078 z "},"ś":{"ha":610,"x_min":0,"x_max":0,"o":"m 342 265 b 428 183 390 254 429 232 b 329 99 426 135 389 103 b 226 121 289 96 256 103 b 174 194 194 136 178 167 l 58 194 b 300 -14 63 61 183 -14 b 551 181 435 -14 551 58 b 383 369 551 254 517 336 l 288 393 b 211 443 254 403 224 417 b 210 494 204 457 204 474 b 307 553 219 529 258 553 b 408 479 357 553 401 528 l 529 479 b 304 663 518 611 414 663 b 79 497 188 663 90 592 b 253 286 68 376 135 318 z m 486 983 l 335 983 l 200 769 l 321 769 z "},"Ŝ":{"ha":796,"x_min":0,"x_max":0,"o":"m 72 276 b 407 -14 72 126 213 -14 b 726 236 596 -14 708 97 b 471 536 747 390 650 490 l 346 567 b 210 700 225 596 210 658 b 389 844 210 788 294 844 b 569 688 494 844 569 783 l 699 688 b 390 968 699 860 564 968 b 81 699 228 968 81 860 b 314 449 81 615 110 500 l 438 418 b 600 247 524 399 607 350 b 407 107 589 175 529 107 b 201 276 286 107 201 193 z m 489 1078 l 603 1078 l 450 1292 l 321 1292 l 168 1078 l 282 1078 l 385 1199 z "},"ŝ":{"ha":610,"x_min":0,"x_max":0,"o":"m 342 265 b 428 183 390 254 429 232 b 329 99 426 135 389 103 b 226 121 289 96 256 103 b 174 194 194 136 178 167 l 58 194 b 300 -14 63 61 183 -14 b 551 181 435 -14 551 58 b 383 369 551 254 517 336 l 288 393 b 211 443 254 403 224 417 b 210 494 204 457 204 474 b 307 553 219 529 258 553 b 408 479 357 553 401 528 l 529 479 b 304 663 518 611 414 663 b 79 497 188 663 90 592 b 253 286 68 376 135 318 z m 408 769 l 522 769 l 369 983 l 240 983 l 88 769 l 201 769 l 304 890 z "},"ş":{"ha":611,"x_min":0,"x_max":0,"o":"m 389 -1 b 551 181 483 22 551 86 b 383 369 551 254 517 336 l 288 393 b 211 443 254 403 224 417 b 210 494 204 457 204 474 b 307 553 219 529 258 553 b 408 479 357 553 401 528 l 529 479 b 304 663 518 611 414 663 b 79 497 188 663 90 592 b 253 286 68 376 135 318 l 342 265 b 428 183 390 254 429 232 b 329 99 426 135 389 103 b 226 121 289 96 256 103 b 174 194 194 136 178 167 l 58 194 b 300 -14 63 61 183 -14 b 317 -12 306 -14 311 -12 l 356 -121 b 328 -194 367 -150 356 -182 b 258 -162 300 -204 271 -190 b 254 -143 256 -157 254 -150 l 254 -132 l 165 -126 b 179 -194 165 -150 169 -174 b 304 -283 203 -250 250 -283 b 358 -272 324 -283 342 -279 b 446 -144 414 -249 446 -199 b 435 -86 446 -126 444 -107 z "},"Ş":{"ha":796,"x_min":0,"x_max":0,"o":"m 353 -162 b 349 -143 350 -157 349 -150 l 349 -132 l 260 -126 b 274 -194 260 -150 264 -174 b 399 -283 297 -250 344 -283 b 453 -272 418 -283 436 -279 b 540 -144 508 -249 540 -199 b 529 -86 540 -126 539 -107 l 486 -6 b 726 236 628 21 713 121 b 471 536 747 390 650 490 l 346 567 b 210 700 225 596 210 658 b 389 844 210 788 294 844 b 569 688 494 844 569 783 l 699 688 b 390 968 699 860 564 968 b 81 699 228 968 81 860 b 314 449 81 615 110 500 l 438 418 b 600 247 524 400 607 349 b 407 107 589 175 529 107 b 201 276 286 107 201 193 l 72 276 b 407 -14 72 126 213 -14 l 411 -14 l 450 -121 b 422 -194 461 -150 450 -182 b 353 -162 394 -204 365 -190 z "},"Ũ":{"ha":942,"x_min":0,"x_max":0,"o":"m 471 111 b 251 329 353 111 251 196 l 251 957 l 121 957 l 121 329 b 471 -14 121 121 281 -14 b 821 329 658 -14 821 121 l 821 957 l 690 957 l 690 329 b 471 111 690 196 589 111 z m 408 1156 b 453 1133 424 1156 436 1144 b 532 1099 474 1118 494 1099 b 656 1257 585 1099 649 1135 l 571 1257 b 532 1200 569 1213 547 1200 b 489 1224 517 1200 504 1211 b 408 1257 468 1239 447 1257 b 286 1094 354 1257 293 1217 l 371 1094 b 408 1156 372 1140 393 1156 z "},"ũ":{"ha":781,"x_min":0,"x_max":0,"o":"m 549 299 b 365 110 549 160 457 110 b 224 282 276 110 224 172 l 224 649 l 97 649 l 97 274 b 347 -14 96 90 185 -14 b 549 97 418 -14 508 19 l 549 0 l 675 0 l 675 649 l 549 649 z m 336 847 b 381 825 351 847 364 836 b 460 790 401 810 422 790 b 583 949 513 790 576 826 l 499 949 b 460 892 497 904 475 892 b 417 915 444 892 432 903 b 336 949 396 931 375 949 b 214 786 282 949 221 908 l 299 786 b 336 847 300 832 321 847 z "},"Ū":{"ha":942,"x_min":0,"x_max":0,"o":"m 471 111 b 251 329 353 111 251 196 l 251 957 l 121 957 l 121 329 b 471 -14 121 121 281 -14 b 821 329 658 -14 821 121 l 821 957 l 690 957 l 690 329 b 471 111 690 196 589 111 z m 296 1225 l 296 1114 l 646 1114 l 646 1225 z "},"ū":{"ha":781,"x_min":0,"x_max":0,"o":"m 549 299 b 365 110 549 160 457 110 b 224 282 276 110 224 172 l 224 649 l 97 649 l 97 274 b 347 -14 96 90 185 -14 b 549 97 418 -14 508 19 l 549 0 l 675 0 l 675 649 l 549 649 z m 224 917 l 224 806 l 574 806 l 574 917 z "},"Ŭ":{"ha":942,"x_min":0,"x_max":0,"o":"m 471 111 b 251 329 353 111 251 196 l 251 957 l 121 957 l 121 329 b 471 -14 121 121 281 -14 b 821 329 658 -14 821 121 l 821 957 l 690 957 l 690 329 b 471 111 690 196 589 111 z m 289 1257 b 469 1079 289 1164 342 1079 b 651 1257 581 1079 651 1146 l 546 1257 b 469 1175 546 1218 518 1175 b 392 1257 421 1175 392 1208 z "},"ŭ":{"ha":781,"x_min":0,"x_max":0,"o":"m 549 299 b 365 110 549 160 457 110 b 224 282 276 110 224 172 l 224 649 l 97 649 l 97 274 b 347 -14 96 90 185 -14 b 549 97 418 -14 508 19 l 549 0 l 675 0 l 675 649 l 549 649 z m 218 949 b 399 771 218 856 271 771 b 581 949 510 771 581 838 l 475 949 b 399 867 475 910 447 867 b 321 949 350 867 321 900 z "},"Ů":{"ha":942,"x_min":0,"x_max":0,"o":"m 471 111 b 251 329 353 111 251 196 l 251 957 l 121 957 l 121 329 b 471 -14 121 121 281 -14 b 821 329 658 -14 821 121 l 821 957 l 690 957 l 690 329 b 471 111 690 196 589 111 z m 324 1204 b 468 1060 324 1122 386 1060 b 617 1204 551 1060 617 1122 b 468 1351 617 1288 551 1351 b 324 1204 386 1351 324 1288 z m 397 1204 b 468 1278 397 1247 429 1278 b 543 1204 511 1278 543 1247 b 468 1133 543 1165 511 1133 b 397 1204 429 1133 397 1165 z "},"ů":{"ha":781,"x_min":0,"x_max":0,"o":"m 549 299 b 365 110 549 160 457 110 b 224 282 276 110 224 172 l 224 649 l 97 649 l 97 274 b 347 -14 96 90 185 -14 b 549 97 418 -14 508 19 l 549 0 l 675 0 l 675 649 l 549 649 z m 253 896 b 397 751 253 814 315 751 b 546 896 481 751 546 814 b 397 1043 546 979 481 1043 b 253 896 315 1043 253 979 z m 326 896 b 397 969 326 939 358 969 b 472 896 440 969 472 939 b 397 825 472 857 440 825 b 326 896 358 825 326 857 z "},"Ű":{"ha":942,"x_min":0,"x_max":0,"o":"m 471 111 b 251 329 353 111 251 196 l 251 957 l 121 957 l 121 329 b 471 -14 121 121 281 -14 b 821 329 658 -14 821 121 l 821 957 l 690 957 l 690 329 b 471 111 690 196 589 111 z m 529 1292 l 401 1292 l 290 1078 l 406 1078 z m 729 1292 l 599 1292 l 475 1078 l 588 1078 z "},"ű":{"ha":781,"x_min":0,"x_max":0,"o":"m 549 299 b 365 110 549 160 457 110 b 224 282 276 110 224 172 l 224 649 l 97 649 l 97 274 b 347 -14 96 90 185 -14 b 549 97 418 -14 508 19 l 549 0 l 675 0 l 675 649 l 549 649 z m 446 983 l 318 983 l 207 769 l 322 769 z m 646 983 l 515 983 l 392 769 l 504 769 z "},"Ų":{"ha":942,"x_min":0,"x_max":0,"o":"m 575 -162 b 506 -194 563 -190 533 -204 b 478 -121 478 -182 467 -150 l 517 -11 b 821 329 685 7 821 138 l 821 957 l 690 957 l 690 329 b 471 111 690 196 589 111 b 251 329 353 111 251 196 l 251 957 l 121 957 l 121 329 b 438 -12 121 133 264 3 l 399 -86 b 388 -144 389 -107 388 -126 b 475 -272 388 -199 419 -249 b 529 -283 492 -279 510 -283 b 654 -194 583 -283 631 -250 b 668 -126 664 -174 668 -150 l 579 -132 l 579 -143 b 575 -162 579 -150 578 -157 z "},"ų":{"ha":781,"x_min":0,"x_max":0,"o":"m 679 -162 b 610 -194 667 -190 638 -204 b 582 -121 582 -182 571 -150 l 625 0 l 675 0 l 675 649 l 549 649 l 549 299 b 365 110 549 160 457 110 b 224 282 276 110 224 172 l 224 649 l 97 649 l 97 274 b 347 -14 96 90 185 -14 b 549 97 418 -14 508 19 l 549 0 l 503 -86 b 492 -144 493 -107 492 -126 b 579 -272 492 -199 524 -249 b 633 -283 596 -279 614 -283 b 758 -194 688 -283 735 -250 b 772 -126 768 -174 772 -150 l 683 -132 l 683 -143 b 679 -162 683 -150 682 -157 z "},"Ŵ":{"ha":1251,"x_min":0,"x_max":0,"o":"m 1092 957 l 851 208 l 675 828 l 576 828 l 400 208 l 160 957 l 21 957 l 344 0 l 457 0 l 625 597 l 794 0 l 907 0 l 1231 957 z m 729 1078 l 843 1078 l 690 1292 l 561 1292 l 408 1078 l 522 1078 l 625 1199 z "},"ŵ":{"ha":1097,"x_min":0,"x_max":0,"o":"m 828 0 l 1068 649 l 933 649 l 771 194 l 608 649 l 486 649 l 324 194 l 161 649 l 26 649 l 274 0 l 376 0 l 547 476 l 724 0 z m 650 769 l 764 769 l 611 983 l 482 983 l 329 769 l 443 769 l 546 890 z "},"Ŷ":{"ha":872,"x_min":0,"x_max":0,"o":"m 503 0 l 503 440 l 869 957 l 714 957 l 436 569 l 161 957 l 7 957 l 369 440 l 369 0 z m 542 1078 l 656 1078 l 503 1292 l 374 1292 l 221 1078 l 335 1078 l 438 1199 z "},"ŷ":{"ha":707,"x_min":0,"x_max":0,"o":"m 281 -315 l 683 649 l 549 649 l 354 179 l 160 649 l 25 649 l 285 19 l 149 -315 z m 461 769 l 575 769 l 422 983 l 293 983 l 140 769 l 254 769 l 357 890 z "},"Ť":{"ha":789,"x_min":0,"x_max":0,"o":"m 39 957 l 39 835 l 329 835 l 329 0 l 460 0 l 460 835 l 750 835 l 750 957 z m 393 1171 l 290 1292 l 176 1292 l 329 1078 l 458 1078 l 611 1292 l 497 1292 z "},"ť":{"ha":456,"x_min":0,"x_max":0,"o":"m 281 649 l 281 893 l 154 893 l 154 649 l 38 649 l 38 542 l 154 542 l 154 0 l 281 0 l 281 542 l 418 542 l 418 649 z m 415 733 b 524 1001 474 779 524 858 l 399 1001 b 335 760 410 885 388 831 z "},"Ŧ":{"ha":788,"x_min":0,"x_max":0,"o":"m 458 569 l 458 829 l 751 829 l 751 957 l 36 957 l 36 829 l 329 829 l 329 569 l 146 569 l 146 478 l 329 478 l 329 0 l 458 0 l 458 478 l 643 478 l 643 569 z "},"ŧ":{"ha":458,"x_min":0,"x_max":0,"o":"m 156 0 l 282 0 l 282 314 l 388 314 l 388 399 l 282 399 l 282 542 l 419 542 l 419 649 l 282 649 l 282 893 l 156 893 l 156 649 l 39 649 l 39 542 l 156 542 l 156 399 l 61 399 l 61 314 l 156 314 z "},"Ź":{"ha":796,"x_min":0,"x_max":0,"o":"m 58 113 l 58 0 l 728 0 l 728 122 l 219 122 l 728 844 l 728 957 l 78 957 l 78 835 l 564 835 z m 590 1292 l 439 1292 l 304 1078 l 425 1078 z "},"ź":{"ha":697,"x_min":0,"x_max":0,"o":"m 629 649 l 81 649 l 81 528 l 444 528 l 58 104 l 58 0 l 629 0 l 629 121 l 236 121 l 629 544 z m 531 983 l 379 983 l 244 769 l 365 769 z "},"Ż":{"ha":796,"x_min":0,"x_max":0,"o":"m 58 113 l 58 0 l 728 0 l 728 122 l 219 122 l 728 844 l 728 957 l 78 957 l 78 835 l 564 835 z m 306 1196 b 393 1114 306 1147 344 1114 b 481 1196 442 1114 481 1147 b 393 1278 481 1244 442 1278 b 306 1196 344 1278 306 1244 z "},"ż":{"ha":697,"x_min":0,"x_max":0,"o":"m 629 649 l 81 649 l 81 528 l 444 528 l 58 104 l 58 0 l 629 0 l 629 121 l 236 121 l 629 544 z m 257 888 b 344 806 257 839 296 806 b 432 888 393 806 432 839 b 344 969 432 936 393 969 b 257 888 296 969 257 936 z "},"ſ":{"ha":424,"x_min":0,"x_max":0,"o":"m 482 1001 l 411 1001 b 163 714 236 1001 163 885 l 163 649 l 38 649 l 38 542 l 163 542 l 163 0 l 290 0 l 290 714 b 411 881 290 797 306 881 l 482 881 z "},"Ẁ":{"ha":1251,"x_min":0,"x_max":0,"o":"m 1092 957 l 851 208 l 675 828 l 576 828 l 400 208 l 160 957 l 21 957 l 344 0 l 457 0 l 625 597 l 794 0 l 907 0 l 1231 957 z m 568 1078 l 689 1078 l 554 1292 l 403 1292 z "},"ẁ":{"ha":1097,"x_min":0,"x_max":0,"o":"m 828 0 l 1068 649 l 933 649 l 771 194 l 608 649 l 486 649 l 324 194 l 161 649 l 26 649 l 274 0 l 376 0 l 547 476 l 724 0 z m 490 769 l 611 769 l 476 983 l 325 983 z "},"Ẃ":{"ha":1251,"x_min":0,"x_max":0,"o":"m 1092 957 l 851 208 l 675 828 l 576 828 l 400 208 l 160 957 l 21 957 l 344 0 l 457 0 l 625 597 l 794 0 l 907 0 l 1231 957 z m 847 1292 l 696 1292 l 561 1078 l 682 1078 z "},"ẃ":{"ha":1097,"x_min":0,"x_max":0,"o":"m 828 0 l 1068 649 l 933 649 l 771 194 l 608 649 l 486 649 l 324 194 l 161 649 l 26 649 l 274 0 l 376 0 l 547 476 l 724 0 z m 771 983 l 619 983 l 485 769 l 606 769 z "},"Ẅ":{"ha":1251,"x_min":0,"x_max":0,"o":"m 1092 957 l 851 208 l 675 828 l 576 828 l 400 208 l 160 957 l 21 957 l 344 0 l 457 0 l 625 597 l 794 0 l 907 0 l 1231 957 z m 422 1183 b 508 1101 422 1135 460 1101 b 593 1183 554 1101 593 1135 b 508 1265 593 1232 554 1265 b 422 1183 460 1265 422 1232 z m 657 1183 b 743 1101 657 1135 694 1101 b 829 1183 792 1101 829 1135 b 743 1265 829 1232 792 1265 b 657 1183 694 1265 657 1232 z "},"ẅ":{"ha":1097,"x_min":0,"x_max":0,"o":"m 828 0 l 1068 649 l 933 649 l 771 194 l 608 649 l 486 649 l 324 194 l 161 649 l 26 649 l 274 0 l 376 0 l 547 476 l 724 0 z m 343 875 b 429 793 343 826 381 793 b 514 875 475 793 514 826 b 429 957 514 924 475 957 b 343 875 381 957 343 924 z m 578 875 b 664 793 578 826 615 793 b 750 875 713 793 750 826 b 664 957 750 924 713 957 b 578 875 615 957 578 924 z "},"℮":{"ha":915,"x_min":0,"x_max":0,"o":"m 849 388 b 469 792 849 606 706 792 b 88 389 232 792 88 610 b 464 -14 88 171 238 -14 b 799 182 639 -14 724 69 l 756 208 b 464 32 693 114 618 32 b 253 119 381 32 313 64 l 253 388 z m 682 433 l 253 433 l 253 660 b 469 746 308 717 386 746 b 682 660 551 746 632 706 z "},"ﬀ":{"ha":982,"x_min":0,"x_max":0,"o":"m 988 1001 l 917 1001 b 668 714 742 1001 668 885 l 668 649 l 290 649 l 290 714 b 411 881 290 797 306 881 l 482 881 l 482 1001 l 411 1001 b 163 714 236 1001 163 885 l 163 649 l 38 649 l 38 542 l 163 542 l 163 0 l 290 0 l 290 542 l 668 542 l 668 0 l 796 0 l 796 542 l 946 542 l 946 649 l 796 649 l 796 714 b 917 881 796 797 811 881 l 988 881 z "},"ﬃ":{"ha":1382,"x_min":0,"x_max":0,"o":"m 1154 542 l 1154 0 l 1279 0 l 1279 649 l 796 649 l 796 714 b 917 881 796 797 811 881 l 988 881 l 988 1001 l 917 1001 b 668 714 742 1001 668 885 l 668 649 l 290 649 l 290 714 b 411 881 290 797 306 881 l 482 881 l 482 1001 l 411 1001 b 163 714 236 1001 163 885 l 163 649 l 38 649 l 38 542 l 163 542 l 163 0 l 290 0 l 290 542 l 668 542 l 668 0 l 796 0 l 796 542 z m 1129 888 b 1217 806 1129 839 1168 806 b 1304 888 1265 806 1304 839 b 1217 969 1304 936 1265 969 b 1129 888 1168 969 1129 936 z "},"≥":{"ha":908,"x_min":0,"x_max":0,"o":"m 817 465 l 817 586 l 114 856 l 114 721 l 642 526 l 114 329 l 114 196 z m 114 111 l 114 0 l 804 0 l 804 111 z "},"≤":{"ha":908,"x_min":0,"x_max":0,"o":"m 794 196 l 794 329 l 267 526 l 794 721 l 794 856 l 92 586 l 92 465 z m 104 111 l 104 0 l 794 0 l 794 111 z "},"ﬄ":{"ha":1361,"x_min":0,"x_max":0,"o":"m 1129 0 l 1256 0 l 1256 1001 l 917 1001 b 668 714 742 1001 668 885 l 668 649 l 290 649 l 290 714 b 411 881 290 797 306 881 l 482 881 l 482 1001 l 411 1001 b 163 714 236 1001 163 885 l 163 649 l 38 649 l 38 542 l 163 542 l 163 0 l 290 0 l 290 542 l 668 542 l 668 0 l 796 0 l 796 542 l 946 542 l 946 649 l 796 649 l 796 714 b 917 881 796 797 811 881 l 1129 881 z "},"≠":{"ha":825,"x_min":0,"x_max":0,"o":"m 432 274 l 503 421 l 732 421 l 732 542 l 563 542 l 638 694 l 539 694 l 464 542 l 93 542 l 93 421 l 406 421 l 333 274 l 93 274 l 93 153 l 275 153 l 200 0 l 297 0 l 372 153 l 732 153 l 732 274 z "},"Ǻ":{"ha":896,"x_min":0,"x_max":0,"o":"m 651 243 l 744 0 l 881 0 l 518 957 l 379 957 l 15 0 l 153 0 l 246 243 z m 661 1515 l 510 1515 l 401 1344 b 301 1204 342 1326 301 1271 b 446 1060 301 1122 364 1060 b 594 1204 529 1060 594 1122 b 519 1332 594 1260 565 1306 z m 290 360 l 449 785 l 607 360 z m 375 1204 b 446 1278 375 1247 407 1278 b 521 1204 489 1278 521 1247 b 446 1133 521 1165 489 1133 b 375 1204 407 1133 375 1165 z "},"ǻ":{"ha":850,"x_min":0,"x_max":0,"o":"m 619 0 l 744 0 l 744 649 l 619 649 l 619 551 b 392 663 575 625 482 663 b 63 325 214 663 63 532 b 392 -14 63 119 214 -14 b 619 100 482 -14 576 28 z m 618 326 b 403 110 618 189 518 110 b 192 326 286 110 192 199 b 403 539 192 454 286 539 b 618 326 508 539 618 465 z m 601 1196 l 450 1196 l 342 1025 b 242 885 282 1007 242 951 b 386 740 242 803 304 740 b 535 885 469 740 535 803 b 460 1013 535 940 506 986 z m 315 885 b 386 958 315 928 347 958 b 461 885 429 958 461 928 b 386 814 461 846 429 814 b 315 885 347 814 315 846 z "},"Ǽ":{"ha":1297,"x_min":0,"x_max":0,"o":"m 306 240 l 646 240 l 646 0 l 1224 0 l 1224 128 l 774 128 l 774 406 l 1154 406 l 1154 533 l 774 533 l 774 829 l 1208 829 l 1208 957 l 604 957 l 0 0 l 151 0 z m 382 364 l 646 778 l 646 364 z m 925 1292 l 774 1292 l 639 1078 l 760 1078 z "},"ǽ":{"ha":1329,"x_min":0,"x_max":0,"o":"m 744 649 l 619 649 l 619 551 b 392 663 575 625 482 663 b 63 325 214 663 63 532 b 392 -14 63 119 214 -14 b 619 100 482 -14 576 28 l 619 0 l 744 0 l 744 54 b 951 -14 801 8 869 -14 b 1250 158 1078 -14 1194 43 b 1142 200 1215 174 1175 185 b 956 100 1104 135 1033 100 b 746 276 844 100 761 167 l 1272 276 b 1274 326 1274 292 1274 311 b 951 663 1274 532 1136 663 b 744 596 871 663 801 640 z m 618 326 b 403 110 618 189 518 110 b 192 326 286 110 192 199 b 403 539 192 454 286 539 b 618 326 508 539 618 465 z m 746 375 b 951 549 761 485 844 549 b 1149 375 1057 549 1133 485 z m 869 983 l 718 983 l 583 769 l 704 769 z "},"Ǿ":{"ha":1104,"x_min":0,"x_max":0,"o":"m 768 1292 l 617 1292 l 482 1078 l 603 1078 z m 247 92 b 550 -14 331 25 433 -14 b 1036 476 824 -14 1036 204 b 925 790 1036 597 996 703 l 1036 904 l 971 968 l 861 856 b 550 968 778 926 671 968 b 67 476 278 968 67 747 b 182 157 67 354 110 244 l 71 43 l 136 -22 z m 196 476 b 550 843 196 681 350 843 b 772 764 635 843 713 813 l 271 249 b 196 476 222 311 196 388 z m 550 111 b 336 183 467 111 396 138 l 835 697 b 906 476 879 636 906 560 b 550 111 906 272 751 111 z "},"ǿ":{"ha":801,"x_min":0,"x_max":0,"o":"m 604 983 l 453 983 l 318 769 l 439 769 z m 200 46 b 400 -14 257 6 324 -14 b 740 326 585 -14 740 121 b 674 533 740 410 717 478 l 743 604 l 678 668 l 608 597 b 400 663 549 640 478 663 b 61 326 215 663 61 532 b 133 110 61 239 88 167 l 56 31 l 121 -35 z m 400 539 b 519 506 444 539 485 528 l 221 201 b 186 326 197 236 186 278 b 400 539 186 457 282 539 z m 400 108 b 289 138 357 108 321 118 l 583 440 b 614 326 601 408 614 369 b 400 108 614 193 515 108 z "},"Ĭ":{"ha":390,"x_min":0,"x_max":0,"o":"m 131 957 l 131 0 l 260 0 l 260 957 z m 14 1257 b 194 1079 14 1164 67 1079 b 376 1257 306 1079 376 1146 l 271 1257 b 194 1175 271 1218 243 1175 b 117 1257 146 1175 117 1208 z "},"ĭ":{"ha":335,"x_min":0,"x_max":0,"o":"m 229 649 l 106 649 l 106 0 l 229 0 z m -7 949 b 174 771 -7 856 46 771 b 356 949 285 771 356 838 l 250 949 b 174 867 250 910 222 867 b 96 949 125 867 96 900 z "},"Ŋ":{"ha":947,"x_min":0,"x_max":0,"o":"m 688 -32 b 601 -194 688 -104 663 -168 b 507 -211 581 -207 550 -215 b 431 -199 489 -211 446 -203 l 418 -328 b 524 -343 450 -337 496 -343 b 817 6 761 -343 817 -178 l 817 957 l 688 957 l 688 242 l 257 957 l 131 957 l 131 0 l 258 0 l 258 715 l 688 14 z "},"ŋ":{"ha":781,"x_min":0,"x_max":0,"o":"m 685 375 b 435 663 686 558 597 663 b 232 551 364 663 269 629 l 232 649 l 106 649 l 106 0 l 232 0 l 232 350 b 415 539 232 488 324 539 b 558 367 504 539 558 476 l 558 0 b 396 -181 558 -96 515 -181 b 306 -164 385 -181 326 -171 l 294 -290 b 396 -304 326 -297 369 -304 b 683 19 618 -304 683 -153 z "},"Ỳ":{"ha":872,"x_min":0,"x_max":0,"o":"m 503 0 l 503 440 l 869 957 l 714 957 l 436 569 l 161 957 l 7 957 l 369 440 l 369 0 z m 385 1078 l 506 1078 l 371 1292 l 219 1292 z "},"ỳ":{"ha":707,"x_min":0,"x_max":0,"o":"m 281 -315 l 683 649 l 549 649 l 354 179 l 160 649 l 25 649 l 285 19 l 149 -315 z m 338 769 l 458 769 l 324 983 l 172 983 z "},"":{"ha":385,"x_min":0,"x_max":0,"o":"m 178 -347 b 286 -79 236 -301 286 -222 l 161 -79 b 97 -321 172 -196 150 -250 z "},"":{"ha":1176,"x_min":0,"x_max":0,"o":"m 1065 954 l 111 954 l 111 0 l 1065 0 z m 228 826 l 592 461 l 961 826 l 961 303 l 844 303 l 947 407 l 947 654 l 592 303 l 238 654 l 238 407 l 340 303 l 228 303 z m 249 183 l 268 133 l 281 183 l 300 183 l 300 110 l 288 110 l 288 161 l 272 110 l 258 110 l 240 161 l 240 110 l 228 110 l 228 183 z m 344 183 b 376 146 365 183 376 167 b 344 110 376 128 365 110 b 310 146 321 110 310 128 b 344 183 310 167 321 183 z m 344 124 b 361 146 357 124 361 136 b 344 169 361 156 357 169 b 321 146 329 169 321 156 b 344 124 321 136 329 124 z m 394 138 b 407 124 394 128 399 124 b 421 133 417 124 421 124 b 403 140 421 138 415 140 b 381 161 390 146 381 150 b 407 183 381 176 394 183 b 433 161 422 183 433 179 l 421 161 b 407 169 421 171 413 169 b 394 161 403 169 394 171 b 417 153 394 156 400 157 b 438 133 431 150 438 143 b 407 110 438 118 431 110 b 376 138 390 110 376 119 z m 438 169 l 438 183 l 493 183 l 493 169 l 472 169 l 472 110 l 461 110 l 461 169 z m 524 183 l 553 110 l 538 110 l 533 128 l 503 128 l 497 110 l 481 110 l 511 183 z m 519 165 l 515 165 l 507 140 l 529 140 z m 592 183 b 610 161 604 183 610 176 b 600 146 610 151 610 150 b 610 128 610 140 610 133 b 614 110 610 118 611 113 l 596 110 l 596 128 b 583 140 596 133 593 140 l 565 140 l 565 110 l 553 110 l 553 183 z m 583 150 b 596 161 592 150 596 154 b 583 169 596 167 592 169 l 565 169 l 565 150 z m 647 183 b 682 150 669 183 682 171 b 647 110 682 128 669 110 l 619 110 l 619 183 z m 647 124 b 665 146 657 124 665 133 b 642 169 665 161 663 169 l 636 169 l 636 124 z m 738 183 l 738 169 l 703 169 l 703 153 l 738 153 l 738 140 l 703 140 l 703 124 l 742 124 l 742 110 l 686 110 l 686 183 z m 754 138 b 772 124 754 128 763 124 b 785 133 776 124 785 124 b 768 140 785 138 783 140 b 742 161 753 146 742 150 b 772 183 742 176 757 183 b 799 161 785 183 799 179 l 785 161 b 768 169 785 171 778 169 b 758 161 764 169 758 171 b 782 153 758 156 764 157 b 803 133 796 150 803 143 b 772 110 803 118 789 110 b 742 138 751 110 742 119 z m 818 183 l 818 110 l 808 110 l 808 183 z m 879 119 b 863 110 875 110 867 110 b 828 146 840 110 828 128 b 863 183 828 167 840 183 b 893 156 875 183 889 176 l 875 156 b 863 169 875 165 867 169 b 840 146 847 169 840 156 b 863 124 840 136 847 124 b 879 138 869 124 875 128 l 863 138 l 863 150 l 893 150 l 893 110 l 885 110 z m 913 183 l 943 138 l 943 183 l 961 183 l 961 110 l 943 110 l 913 156 l 913 110 l 901 110 l 901 183 z "},"Ģ":{"ha":1050,"x_min":0,"x_max":0,"o":"m 875 842 b 551 968 792 919 679 968 b 68 476 279 968 68 747 b 551 -14 68 204 279 -14 b 1004 481 825 -14 1004 143 l 585 481 l 585 368 l 857 368 b 551 110 850 208 722 110 b 197 476 351 110 197 272 b 551 844 197 679 351 844 b 782 756 640 844 721 810 z m 515 -347 b 624 -79 574 -301 624 -222 l 499 -79 b 435 -321 510 -196 488 -250 z "},"Ķ":{"ha":803,"x_min":0,"x_max":0,"o":"m 418 -347 b 526 -79 476 -301 526 -222 l 401 -79 b 338 -321 413 -196 390 -250 z m 368 479 l 736 957 l 576 957 l 260 543 l 260 957 l 131 957 l 131 0 l 260 0 l 260 408 l 639 0 l 813 0 z "},"ķ":{"ha":697,"x_min":0,"x_max":0,"o":"m 231 317 l 526 0 l 693 0 l 349 368 l 626 649 l 454 649 l 231 422 l 231 1001 l 106 1001 l 106 0 l 231 0 z m 343 -347 b 451 -79 401 -301 451 -222 l 326 -79 b 263 -321 338 -196 315 -250 z "},"Ļ":{"ha":688,"x_min":0,"x_max":0,"o":"m 131 957 l 131 0 l 650 0 l 650 121 l 260 121 l 260 957 z m 333 -347 b 442 -79 392 -301 442 -222 l 317 -79 b 253 -321 328 -196 306 -250 z "},"ļ":{"ha":338,"x_min":0,"x_max":0,"o":"m 106 1001 l 106 0 l 232 0 l 232 1001 z m 124 -347 b 232 -79 182 -301 232 -222 l 107 -79 b 43 -321 118 -196 96 -250 z "},"Ņ":{"ha":950,"x_min":0,"x_max":0,"o":"m 819 0 l 819 957 l 690 957 l 690 242 l 258 957 l 131 957 l 131 0 l 260 0 l 260 721 l 696 0 z m 442 -347 b 550 -79 500 -301 550 -222 l 425 -79 b 361 -321 436 -196 414 -250 z "},"ņ":{"ha":782,"x_min":0,"x_max":0,"o":"m 232 350 b 415 539 232 488 324 539 b 558 367 504 539 558 476 l 558 0 l 685 0 l 685 375 b 435 663 685 558 597 663 b 232 551 364 663 269 629 l 232 649 l 106 649 l 106 0 l 232 0 z m 351 -347 b 460 -79 410 -301 460 -222 l 335 -79 b 271 -321 346 -196 324 -250 z "},"Ŗ":{"ha":860,"x_min":0,"x_max":0,"o":"m 532 363 b 782 657 711 378 782 515 b 499 957 782 807 700 957 l 131 957 l 131 0 l 261 0 l 261 358 l 383 358 l 631 0 l 788 0 z m 494 836 b 649 657 606 836 649 744 b 489 479 649 568 606 479 l 261 479 l 261 836 z m 397 -347 b 506 -79 456 -301 506 -222 l 381 -79 b 317 -321 392 -196 369 -250 z "},"ŗ":{"ha":549,"x_min":0,"x_max":0,"o":"m 232 236 b 410 542 232 408 285 542 b 506 519 436 542 471 536 l 525 638 b 413 663 507 650 458 663 b 232 503 328 663 265 618 l 232 649 l 106 649 l 106 0 l 232 0 z m 124 -347 b 232 -79 182 -301 232 -222 l 107 -79 b 43 -321 118 -196 96 -250 z "},"Ţ":{"ha":789,"x_min":0,"x_max":0,"o":"m 39 957 l 39 835 l 329 835 l 329 0 l 460 0 l 460 835 l 750 835 l 750 957 z m 346 -347 b 454 -79 404 -301 454 -222 l 329 -79 b 265 -321 340 -196 318 -250 z "},"ţ":{"ha":456,"x_min":0,"x_max":0,"o":"m 281 649 l 281 893 l 154 893 l 154 649 l 38 649 l 38 542 l 154 542 l 154 0 l 281 0 l 281 542 l 418 542 l 418 649 z m 171 -347 b 279 -79 229 -301 279 -222 l 154 -79 b 90 -321 165 -196 143 -250 z "},"Ș":{"ha":796,"x_min":0,"x_max":0,"o":"m 72 276 b 407 -14 72 126 213 -14 b 726 236 596 -14 708 97 b 471 536 747 390 650 490 l 346 567 b 210 700 225 596 210 658 b 389 844 210 788 294 844 b 569 688 494 844 569 783 l 699 688 b 390 968 699 860 564 968 b 81 699 228 968 81 860 b 314 449 81 615 110 500 l 438 418 b 553 367 482 408 521 393 b 600 247 590 339 606 296 b 407 107 589 175 529 107 b 201 276 286 107 201 193 z m 368 -347 b 476 -79 426 -301 476 -222 l 351 -79 b 288 -321 363 -196 340 -250 z "},"ș":{"ha":610,"x_min":0,"x_max":0,"o":"m 342 265 b 428 183 390 254 429 232 b 329 99 426 135 389 103 b 226 121 289 96 256 103 b 174 194 194 136 178 167 l 58 194 b 300 -14 63 61 183 -14 b 551 181 435 -14 551 58 b 383 369 551 254 517 336 l 288 393 b 211 443 254 403 224 417 b 210 494 204 457 204 474 b 307 553 219 529 258 553 b 408 479 357 553 401 528 l 529 479 b 304 663 518 611 414 663 b 79 497 188 663 90 592 b 253 286 68 376 135 318 z m 271 -347 b 379 -79 329 -301 379 -222 l 254 -79 b 190 -321 265 -196 243 -250 z "},"ℓ":{"ha":546,"x_min":0,"x_max":0,"o":"m 307 124 b 251 136 285 124 267 128 b 224 221 231 151 224 182 l 224 261 b 476 483 417 261 476 324 l 476 747 b 290 968 476 869 428 968 b 100 747 142 968 100 869 l 100 221 b 290 0 100 99 142 0 l 439 0 l 439 124 z m 224 386 l 224 739 b 290 844 224 793 236 844 b 351 739 339 844 351 794 l 351 490 b 290 386 351 436 336 386 z "},"ģ":{"ha":849,"x_min":0,"x_max":0,"o":"m 203 -93 b 97 -149 186 -100 113 -140 b 390 -324 160 -264 269 -324 b 744 99 606 -324 744 -207 l 744 649 l 619 649 l 619 547 b 392 663 575 621 482 663 b 63 322 214 663 63 528 b 392 -14 63 117 214 -14 b 619 106 483 -14 579 28 b 621 90 619 100 621 96 b 390 -204 621 -125 531 -204 b 203 -93 318 -204 242 -165 z m 618 324 b 403 110 618 185 508 110 b 192 324 286 110 192 190 b 403 539 192 450 286 539 b 618 324 518 539 618 463 z m 431 1040 b 322 772 372 994 322 915 l 447 772 b 511 1014 436 889 460 940 z "},"":{"ha":1633,"x_min":0,"x_max":0,"o":"m 504 363 b 754 657 683 378 754 515 b 471 957 754 807 672 957 l 103 957 l 103 0 l 233 0 l 233 358 l 356 358 l 603 0 l 760 0 z m 467 836 b 621 657 578 836 621 744 b 461 479 621 568 578 479 l 233 479 l 233 836 z m 1033 649 l 907 649 l 907 -315 l 1033 -315 l 1033 97 b 1260 -14 1078 24 1168 -14 b 1585 322 1438 -14 1585 117 b 1260 663 1585 528 1438 663 b 1033 547 1168 663 1078 621 z m 1035 321 b 1247 539 1035 458 1133 539 b 1457 321 1364 539 1457 450 b 1247 110 1457 192 1364 110 b 1035 321 1143 110 1035 182 z "},"₨":{"ha":936,"x_min":0,"x_max":0,"o":"m 257 358 l 504 0 l 661 0 l 406 363 b 656 650 583 378 651 513 l 869 650 l 869 726 l 650 726 b 569 881 639 788 614 838 l 869 881 l 869 957 l 92 957 l 93 836 l 368 836 b 514 726 451 836 496 789 l 93 726 l 93 650 l 522 650 b 363 479 518 563 478 479 l 93 479 l 93 358 z "},"₡":{"ha":975,"x_min":0,"x_max":0,"o":"m 432 0 b 550 -14 469 -10 507 -14 b 913 151 700 -14 828 50 l 815 233 b 550 111 750 157 657 111 b 474 119 524 111 499 114 l 717 800 b 813 725 754 779 785 754 l 910 806 b 760 921 867 854 819 893 l 804 1044 l 739 1067 l 696 946 b 576 967 658 958 619 965 l 622 1094 l 557 1118 l 503 965 b 65 476 254 943 65 731 b 204 131 65 342 117 219 l 131 -78 l 196 -100 l 261 82 b 365 22 292 58 326 38 l 313 -128 l 378 -151 z m 550 843 b 653 826 586 843 621 838 l 408 140 b 306 208 371 157 336 179 l 532 843 z m 194 476 b 454 829 194 644 301 788 l 254 271 b 194 476 217 331 194 399 z "},"₩":{"ha":1364,"x_min":0,"x_max":0,"o":"m 271 381 l 400 0 l 513 0 l 619 381 l 742 381 l 850 0 l 963 0 l 1092 381 l 1281 381 l 1281 457 l 1117 457 l 1164 596 l 1281 596 l 1281 672 l 1189 672 l 1286 957 l 1147 957 l 1056 672 l 775 672 l 731 828 l 632 828 l 588 672 l 307 672 l 215 957 l 76 957 l 172 672 l 83 672 l 83 596 l 199 596 l 246 457 l 83 457 l 83 381 z m 796 596 l 1031 596 l 986 457 l 836 457 z m 331 596 l 565 596 l 526 457 l 375 457 z m 857 381 l 963 381 l 907 208 z m 400 381 l 504 381 l 456 208 z m 679 596 l 681 596 l 721 457 l 640 457 z "},"₤":{"ha":882,"x_min":0,"x_max":0,"o":"m 200 553 l 94 553 l 94 479 l 200 479 l 200 388 l 94 388 l 94 314 l 200 314 l 200 125 l 72 125 l 72 0 l 678 0 b 811 167 768 0 811 74 l 811 235 l 686 235 l 686 156 b 663 125 686 135 678 125 l 324 125 l 324 314 l 536 314 l 536 388 l 324 388 l 324 479 l 536 479 l 536 553 l 324 553 l 324 697 b 471 840 324 782 397 836 b 533 835 492 844 513 840 b 633 678 590 818 633 761 l 758 678 b 485 968 758 856 635 968 b 200 697 336 968 200 864 z "},"₪":{"ha":1043,"x_min":0,"x_max":0,"o":"m 700 461 b 407 747 700 621 585 747 l 133 747 l 133 0 l 258 0 l 258 624 l 407 624 b 576 461 511 624 576 551 l 576 229 l 700 229 z m 343 286 b 636 0 343 126 458 0 l 910 0 l 910 747 l 785 747 l 785 124 l 636 124 b 467 286 532 124 467 196 l 467 518 l 343 518 z "},"₦":{"ha":1051,"x_min":0,"x_max":0,"o":"m 864 0 l 864 347 l 978 347 l 978 424 l 864 424 l 864 526 l 978 526 l 978 603 l 864 603 l 864 957 l 735 957 l 735 603 l 517 603 l 303 957 l 175 957 l 175 603 l 79 603 l 79 526 l 175 526 l 175 424 l 79 424 l 79 347 l 175 347 l 175 0 l 304 0 l 304 347 l 531 347 l 740 0 z m 304 526 l 422 526 l 483 424 l 304 424 z m 563 526 l 735 526 l 735 424 l 625 424 z m 304 721 l 375 603 l 304 603 z m 671 347 l 735 347 l 735 242 z "},"₧":{"ha":1035,"x_min":0,"x_max":0,"o":"m 185 554 l 185 0 l 315 0 l 315 358 l 567 358 b 840 554 731 358 811 443 l 972 554 l 972 631 l 851 631 l 851 642 b 847 699 851 660 850 679 l 972 699 l 972 775 l 828 775 b 567 957 790 875 708 957 l 185 957 l 185 775 l 74 775 l 74 699 l 185 699 l 185 631 l 74 631 l 74 554 z m 722 631 l 315 631 l 315 699 l 715 699 b 722 642 719 678 722 658 z m 315 479 l 315 554 l 703 554 b 558 479 679 508 632 479 z m 565 836 b 682 775 619 836 656 813 l 315 775 l 315 836 z "},"№":{"ha":1346,"x_min":0,"x_max":0,"o":"m 910 775 b 1093 593 910 675 993 593 b 1275 775 1193 593 1275 675 b 1093 957 1275 875 1193 957 b 910 775 993 957 910 875 z m 1004 775 b 1093 864 1004 824 1044 864 b 1182 775 1142 864 1182 824 b 1093 686 1182 726 1142 686 b 1004 775 1044 686 1004 726 z m 917 469 l 1268 469 l 1268 535 l 917 535 z m 822 0 l 822 957 l 693 957 l 693 242 l 261 957 l 133 957 l 133 0 l 263 0 l 263 721 l 699 0 z "}," ":{"ha":19,"x_min":0,"x_max":0,"o":""},"¹":{"ha":289,"x_min":0,"x_max":0,"o":"m 131 597 l 214 597 l 214 1149 l 36 1051 l 36 972 l 131 1021 z "},"²":{"ha":444,"x_min":0,"x_max":0,"o":"m 51 636 l 51 597 l 390 597 l 390 679 l 189 679 l 329 844 b 389 986 367 885 389 932 b 217 1150 389 1083 313 1150 b 44 1000 132 1150 60 1093 l 118 981 b 217 1071 128 1036 168 1071 b 308 986 267 1071 308 1036 b 271 901 308 958 292 928 z "},"³":{"ha":444,"x_min":0,"x_max":0,"o":"m 121 1025 b 217 1074 143 1058 174 1078 b 279 1042 243 1072 268 1060 b 289 986 292 1025 293 1004 b 214 924 282 951 253 924 l 151 924 l 151 851 l 214 851 b 318 754 271 851 319 806 b 200 665 318 700 258 661 l 201 665 b 100 740 157 669 117 703 l 33 704 b 196 590 63 642 124 596 b 394 744 296 583 388 650 b 308 890 399 804 365 868 b 368 965 338 907 358 933 b 372 999 371 976 372 988 b 222 1149 376 1075 311 1144 b 65 1069 156 1153 97 1121 z "},"¼":{"ha":1018,"x_min":0,"x_max":0,"o":"m 226 375 l 226 924 l 64 865 l 64 794 l 153 825 l 153 375 z m 808 410 l 808 182 l 651 182 z m 961 111 l 961 182 l 882 182 l 882 544 l 826 544 l 525 111 l 808 111 l 808 0 l 882 0 l 882 111 z m 828 931 l 735 931 l 108 -14 l 203 -14 z "},"½":{"ha":1071,"x_min":0,"x_max":0,"o":"m 228 375 l 228 924 l 65 865 l 65 794 l 154 825 l 154 375 z m 664 0 l 1000 0 l 1000 75 l 792 75 b 939 249 865 164 869 168 b 999 390 974 289 999 336 b 828 551 999 486 922 551 b 657 408 743 551 672 497 l 725 390 b 824 476 732 444 774 476 b 925 390 878 476 925 444 b 885 301 925 358 908 331 l 664 33 z m 825 931 l 732 931 l 106 -14 l 200 -14 z "},"¾":{"ha":1128,"x_min":0,"x_max":0,"o":"m 761 182 l 918 182 l 918 410 z m 992 111 l 992 0 l 918 0 l 918 111 l 635 111 l 936 544 l 992 544 l 992 182 l 1071 182 l 1071 111 z m 144 803 b 239 853 167 836 196 857 b 313 764 289 846 322 813 b 238 701 306 726 276 701 l 175 701 l 175 629 l 238 629 b 342 532 293 629 346 585 b 224 442 338 478 283 438 l 225 442 b 122 517 181 446 139 479 l 57 482 b 218 368 85 419 146 374 b 418 522 319 361 411 428 b 332 668 422 582 388 646 b 396 776 371 690 396 733 b 246 926 400 854 333 919 b 89 847 178 931 118 899 z m 325 -14 l 231 -14 l 857 931 l 950 931 z "},"⁰":{"ha":506,"x_min":0,"x_max":0,"o":"m 54 868 b 253 590 54 717 94 590 b 451 868 411 590 451 717 b 253 1150 451 1024 411 1150 b 54 868 94 1150 54 1024 z m 136 868 b 253 1068 136 978 158 1068 b 369 868 347 1068 369 978 b 253 671 369 760 347 671 b 136 868 158 671 136 760 z "},"⁴":{"ha":499,"x_min":0,"x_max":0,"o":"m 383 707 l 461 707 l 461 785 l 383 785 l 383 1143 l 322 1143 l 19 707 l 301 707 l 301 597 l 383 597 z m 161 785 l 301 993 l 301 785 z "},"⁵":{"ha":472,"x_min":0,"x_max":0,"o":"m 36 704 b 226 589 74 631 149 589 b 426 774 347 589 426 661 b 242 949 426 889 340 949 b 154 931 211 949 182 943 l 179 1064 l 390 1064 l 390 1142 l 111 1142 l 63 854 l 88 822 b 242 868 156 857 196 868 b 346 774 290 868 346 839 b 226 669 346 717 303 669 b 104 753 176 669 125 699 z "},"⁶":{"ha":469,"x_min":0,"x_max":0,"o":"m 417 1036 b 254 1147 376 1125 315 1143 b 57 775 57 1153 51 904 b 235 588 67 660 136 592 b 419 761 336 583 413 660 b 249 951 424 861 349 951 b 138 886 204 951 161 932 b 254 1069 136 993 183 1069 b 343 1006 286 1069 321 1051 z m 142 774 b 247 868 146 829 190 869 b 338 765 301 867 342 822 b 239 671 333 711 294 667 b 142 774 185 672 142 717 z "},"⁷":{"ha":454,"x_min":0,"x_max":0,"o":"m 436 1143 l 54 1143 l 54 1061 l 296 1061 l 42 597 l 138 597 z "},"⁸":{"ha":475,"x_min":0,"x_max":0,"o":"m 90 1007 b 126 914 90 971 103 940 b 49 768 76 882 49 829 b 238 590 49 668 131 590 b 426 768 344 590 426 668 b 347 914 426 829 396 882 b 388 1007 371 940 388 972 b 238 1150 388 1086 321 1150 b 90 1007 153 1150 90 1086 z m 131 768 b 232 872 131 822 172 872 l 238 872 b 344 768 297 872 344 824 b 238 671 344 714 297 671 b 131 768 176 671 131 714 z m 172 1007 b 238 1068 172 1040 200 1068 b 304 1007 275 1068 304 1040 b 240 942 304 975 278 946 l 233 942 b 172 1007 196 946 172 975 z "},"⁹":{"ha":469,"x_min":0,"x_max":0,"o":"m 53 700 b 215 589 92 613 154 590 b 413 961 413 583 418 832 b 235 1149 403 1076 333 1144 b 50 975 136 1153 54 1076 b 221 785 46 875 121 785 b 332 850 265 785 308 804 b 215 667 333 743 286 667 b 126 731 183 667 149 685 z m 328 963 b 222 868 324 907 279 867 b 132 971 168 869 128 914 b 231 1065 136 1025 175 1069 b 328 963 285 1064 328 1019 z "},"₀":{"ha":506,"x_min":0,"x_max":0,"o":"m 54 68 b 253 -210 54 -83 94 -210 b 451 68 411 -210 451 -83 b 253 350 451 224 411 350 b 54 68 94 350 54 224 z m 136 68 b 253 268 136 178 158 268 b 369 68 347 268 369 178 b 253 -129 369 -40 347 -129 b 136 68 158 -129 136 -40 z "},"₁":{"ha":288,"x_min":0,"x_max":0,"o":"m 129 -203 l 213 -203 l 213 349 l 35 251 l 35 172 l 129 221 z "},"₂":{"ha":451,"x_min":0,"x_max":0,"o":"m 54 -164 l 54 -203 l 393 -203 l 393 -121 l 192 -121 l 332 44 b 392 186 369 85 392 132 b 219 350 392 283 315 350 b 47 200 135 350 63 293 l 121 181 b 219 271 131 236 171 271 b 311 186 269 271 311 236 b 274 101 311 158 294 128 z "},"₃":{"ha":444,"x_min":0,"x_max":0,"o":"m 121 225 b 217 274 143 258 174 278 b 279 242 243 272 268 260 b 289 186 292 225 293 204 b 214 124 282 151 253 124 l 151 124 l 151 51 l 214 51 b 318 -46 271 51 319 6 b 200 -135 318 -100 258 -139 l 201 -135 b 100 -60 157 -131 117 -97 l 33 -96 b 196 -210 63 -158 124 -204 b 394 -56 296 -217 388 -150 b 308 90 399 4 365 68 b 368 165 338 107 358 133 b 372 199 371 176 372 188 b 222 349 376 275 311 344 b 65 269 156 353 97 321 z "},"₄":{"ha":500,"x_min":0,"x_max":0,"o":"m 385 -93 l 463 -93 l 463 -15 l 385 -15 l 385 343 l 324 343 l 21 -93 l 303 -93 l 303 -203 l 385 -203 z m 163 -15 l 303 193 l 303 -15 z "},"₅":{"ha":469,"x_min":0,"x_max":0,"o":"m 36 -96 b 226 -211 74 -169 149 -211 b 426 -26 347 -211 426 -139 b 242 149 426 89 340 149 b 154 131 211 149 182 143 l 179 264 l 390 264 l 390 342 l 111 342 l 63 54 l 88 22 b 242 68 156 57 196 68 b 346 -26 290 68 346 39 b 226 -131 346 -83 303 -131 b 104 -47 176 -131 125 -101 z "},"₆":{"ha":468,"x_min":0,"x_max":0,"o":"m 417 236 b 254 347 376 325 315 343 b 57 -25 57 353 51 104 b 235 -212 67 -140 136 -208 b 419 -39 336 -217 413 -140 b 249 151 424 61 349 151 b 138 86 204 151 161 132 b 254 269 136 193 183 269 b 343 206 286 269 321 251 z m 142 -26 b 247 68 146 29 190 69 b 338 -35 301 67 342 22 b 239 -129 333 -89 294 -133 b 142 -26 185 -128 142 -83 z "},"₇":{"ha":444,"x_min":0,"x_max":0,"o":"m 438 343 l 56 343 l 56 261 l 297 261 l 43 -203 l 139 -203 z "},"₈":{"ha":475,"x_min":0,"x_max":0,"o":"m 90 207 b 126 114 90 171 103 140 b 49 -32 76 82 49 29 b 238 -210 49 -132 131 -210 b 426 -32 344 -210 426 -132 b 347 114 426 29 396 82 b 388 207 371 140 388 172 b 238 350 388 286 321 350 b 90 207 153 350 90 286 z m 131 -32 b 232 72 131 22 172 72 l 238 72 b 344 -32 297 72 344 24 b 238 -129 344 -86 297 -129 b 131 -32 176 -129 131 -86 z m 172 207 b 238 268 172 240 200 268 b 304 207 275 268 304 240 b 240 142 304 175 278 146 l 233 142 b 172 207 196 146 172 175 z "},"₉":{"ha":469,"x_min":0,"x_max":0,"o":"m 54 -100 b 217 -211 93 -187 156 -210 b 414 161 410 -217 425 32 b 236 349 404 276 335 344 b 51 175 138 353 56 276 b 222 -15 47 75 122 -15 b 333 50 267 -15 310 4 b 217 -133 335 -57 288 -133 b 128 -69 185 -133 150 -115 z m 329 163 b 224 68 325 107 281 67 b 133 171 169 69 129 114 b 232 265 138 225 176 269 b 329 163 286 264 329 219 z "},"º":{"ha":690,"x_min":0,"x_max":0,"o":"m 344 442 b 583 681 472 442 583 535 b 344 915 583 824 472 915 b 107 681 215 915 107 824 b 344 442 107 535 215 442 z m 344 528 b 194 681 261 528 194 586 b 344 829 194 771 263 829 b 494 681 426 829 494 771 b 344 528 494 586 428 528 z m 118 299 l 578 299 l 578 368 l 118 368 z "},"ª":{"ha":701,"x_min":0,"x_max":0,"o":"m 492 451 l 579 451 l 579 906 l 492 906 l 492 838 b 333 915 463 889 396 915 b 103 679 208 915 103 824 b 333 442 103 535 208 442 b 492 521 396 442 463 469 z m 492 681 b 340 528 492 585 421 528 b 193 681 257 528 193 590 b 340 829 193 771 257 829 b 492 681 414 829 492 776 z m 136 299 l 574 299 l 574 368 l 136 368 z "},"ÿ":{"ha":772,"x_min":0,"x_max":0,"o":"m 589 272 b 383 99 574 163 490 99 b 186 272 278 99 201 163 z m 61 321 b 383 -15 61 115 199 -15 b 715 321 568 -15 715 115 b 383 661 715 526 568 661 b 85 489 257 661 140 604 b 193 447 119 474 160 463 b 379 547 231 513 301 547 b 589 371 490 547 574 481 l 63 371 b 61 321 61 356 61 336 z "},"ß":{"ha":1106,"x_min":0,"x_max":0,"o":"m 1032 535 b 190 806 982 967 453 1113 l 289 725 b 901 535 496 954 857 833 l 71 535 b 553 -14 38 242 256 -14 b 1032 535 850 -14 1065 242 z m 901 418 b 553 114 872 214 713 114 b 203 418 392 114 232 214 z "},"b":{"ha":850,"x_min":0,"x_max":0,"o":"m 232 100 b 458 -14 275 28 368 -14 b 788 325 636 -14 788 119 b 460 663 788 532 639 663 b 232 551 365 663 275 625 l 232 1001 l 106 1001 l 106 0 l 232 0 z m 233 326 b 449 539 233 465 343 539 b 658 326 565 539 658 454 b 449 110 658 199 565 110 b 233 326 333 110 233 189 z "},"d":{"ha":850,"x_min":0,"x_max":0,"o":"m 618 0 l 744 0 l 744 1001 l 618 1001 l 618 551 b 389 663 575 625 485 663 b 63 325 211 663 63 532 b 390 -14 63 119 213 -14 b 618 100 481 -14 575 28 z m 617 326 b 401 110 617 189 517 110 b 192 326 285 110 192 199 b 401 539 192 454 285 539 b 617 326 507 539 617 465 z "}}}
